<svg width="120" height="113" viewBox="0 0 120 113" fill="none" xmlns="http://www.w3.org/2000/svg">
<g clip-path="url(#clip0_6_2193)">
<path d="M104.16 21.3496C103.169 20.729 102.267 21.545 102.905 22.5701C103.122 22.9176 103.477 22.9038 103.968 22.529" stroke="#656B86" stroke-width="0.685714"/>
<path d="M102.453 23.3826C102.382 22.9872 102.193 22.7266 101.887 22.6009C101.791 22.5616 101.685 22.5494 101.583 22.5657C101.48 22.582 101.384 22.6262 101.304 22.6935L98.695 24.8946" stroke="#656B86" stroke-width="0.685714"/>
<path d="M98.0914 23.794L102.675 19.2992C103.064 18.9198 103.067 18.5369 102.686 18.1506L102.569 18.034C102.471 17.9366 102.339 17.8817 102.201 17.881C102.063 17.8804 101.931 17.9341 101.832 18.0306L97.1829 22.5906" stroke="#656B86" stroke-width="0.685714"/>
<path d="M96.7817 21.4146L98.3417 19.738C98.4031 19.6721 98.4507 19.5946 98.4818 19.5101C98.513 19.4255 98.5271 19.3355 98.5233 19.2453C98.5194 19.1551 98.4978 19.0665 98.4596 18.9845C98.4214 18.9026 98.3673 18.8289 98.3006 18.7677L96.2948 16.9403C96.1929 16.8479 96.0602 16.797 95.923 16.7976C95.7858 16.7982 95.6542 16.8504 95.5543 16.9437C95.1703 17.3003 94.8731 17.7186 94.6629 18.1986C94.6381 18.2557 94.6013 18.3066 94.5552 18.3481C94.509 18.3895 94.4545 18.4204 94.3954 18.4386C93.4526 18.7403 92.928 19.5597 92.3417 20.2969" stroke="#656B86" stroke-width="0.685714"/>
<path d="M91.8001 19.1654L94.2344 15.9494C94.463 15.6477 94.4378 15.3689 94.159 15.1129L93.9327 14.9037C93.6721 14.6637 93.4333 14.6843 93.2161 14.9654L90.3944 18.6031" stroke="#656B86" stroke-width="0.685714"/>
<path d="M89.5781 17.873C89.761 17.6124 89.8867 17.3153 89.9553 16.9815C89.9804 16.8581 89.9507 16.7495 89.8661 16.6558C89.665 16.4318 89.4136 16.3221 89.1118 16.3267C89.0551 16.3279 88.9992 16.3417 88.9482 16.3672C88.8972 16.3927 88.8524 16.4292 88.817 16.4741L88.3987 17.0021C88.3594 17.0504 88.3066 17.0858 88.2472 17.1035C88.1879 17.1213 88.1247 17.1206 88.0661 17.1015C87.8193 17.017 87.6467 16.8547 87.5484 16.6147C87.5073 16.5095 87.5118 16.4055 87.5621 16.3027C88.2296 14.9633 88.7587 14.0467 89.1496 13.553C89.4033 13.2307 89.6764 13.1953 89.969 13.4467C90.0077 13.4789 90.0388 13.5193 90.0601 13.5649C90.0815 13.6105 90.0925 13.6603 90.0924 13.7107C90.0958 14.4238 89.873 15.2261 90.8398 15.4318C90.8984 15.4442 90.9591 15.4398 91.015 15.4192C91.0709 15.3985 91.1195 15.3625 91.1553 15.3153C91.5347 14.8078 91.801 14.249 91.9541 13.6387C91.969 13.5815 91.9642 13.5209 91.9407 13.4663C91.9171 13.4117 91.876 13.3662 91.8238 13.337C91.0101 12.8775 90.2147 12.3861 89.4376 11.8627C88.6593 11.3415 88.2753 12.2707 87.9598 12.8055" stroke="#656B86" stroke-width="0.685714"/>
<path d="M86.4581 12.7953L87.161 11.1427C87.2287 10.9853 87.2333 10.8078 87.1741 10.6466C87.1148 10.4854 86.9961 10.3525 86.8421 10.2753L84.5416 9.12673C84.4515 9.08183 84.3534 9.05508 84.2531 9.04801C84.1528 9.04095 84.0521 9.05371 83.9568 9.08557C83.8616 9.11742 83.7736 9.16774 83.6981 9.23364C83.6225 9.29954 83.5608 9.37972 83.5164 9.46959L82.2924 11.9416" stroke="#656B86" stroke-width="0.685714"/>
<path d="M81.343 11.2524C81.6173 10.4661 81.8813 9.68893 82.135 8.92093C82.3659 8.22379 82.159 7.84893 81.5145 7.79636C80.5682 7.72093 79.8116 7.4295 79.2447 6.92207C79.1793 6.86341 79.1006 6.82145 79.0155 6.79976C78.9303 6.77807 78.8411 6.77729 78.7556 6.7975C78.6701 6.8177 78.5907 6.85829 78.5242 6.9158C78.4577 6.97331 78.4062 7.04604 78.3739 7.12779L76.879 10.9026" stroke="#656B86" stroke-width="0.685714"/>
<path d="M75.8845 10.5769C75.9873 10.2295 76.0067 9.8969 75.9427 9.57919C75.9199 9.4649 75.8639 9.3689 75.7747 9.29119C75.1062 8.69805 73.8307 7.7209 74.2867 6.83976C74.337 6.74147 74.4182 6.69233 74.5302 6.69233C75.7576 6.69233 74.7496 8.2729 76.2582 8.36547C76.3099 8.36821 76.361 8.35337 76.4028 8.32341C76.4446 8.29345 76.4746 8.25021 76.4879 8.2009L76.8719 6.74033C76.8888 6.67458 76.8923 6.60612 76.8824 6.53896C76.8725 6.47181 76.8494 6.40729 76.8142 6.3492C76.7791 6.2911 76.7328 6.24059 76.6779 6.2006C76.6231 6.16062 76.5608 6.13197 76.4947 6.11633L73.7965 5.4889C73.6861 5.46245 73.5701 5.47374 73.4669 5.52097C73.3638 5.56821 73.2794 5.64866 73.2273 5.74947C72.8799 6.4169 72.6867 7.13919 72.6479 7.91633" stroke="#656B86" stroke-width="0.685714"/>
<path d="M70.7073 6.89122C71.0479 6.5415 71.1519 6.15293 71.0193 5.7255C71.0013 5.66592 70.9657 5.61328 70.9173 5.57467C70.8689 5.53606 70.81 5.51332 70.7485 5.5095L69.5348 5.4135C69.1645 5.38608 69.0033 5.18836 69.0513 4.82036L69.2742 3.09579C69.2825 3.02968 69.3041 2.96593 69.3377 2.90839C69.3713 2.85086 69.4162 2.80072 69.4697 2.76099C69.5232 2.72127 69.5842 2.69279 69.649 2.67726C69.7138 2.66173 69.7811 2.65948 69.8468 2.67065L71.1428 2.8935C71.3027 2.92067 71.4669 2.8841 71.5997 2.79169C71.7325 2.69929 71.8234 2.5585 71.8525 2.39979L71.9142 2.07065C71.9873 1.66836 71.8205 1.44893 71.4136 1.41236L68.393 1.12436C68.1073 1.09693 67.9473 1.22493 67.913 1.50836L67.2753 6.76436" stroke="#656B86" stroke-width="0.685714"/>
<path d="M62.424 6.77812C62.1634 5.91412 60.8605 6.01012 60.7714 6.86383C60.7681 6.8996 60.7552 6.93382 60.7341 6.96285C60.7129 6.99188 60.6843 7.01463 60.6512 7.0287C60.6182 7.04276 60.5819 7.04761 60.5463 7.04273C60.5108 7.03785 60.4772 7.02342 60.4491 7.00098C60.0903 6.71983 59.8091 6.37583 59.6057 5.96898C59.5806 5.91783 59.5694 5.86094 59.573 5.80385C59.5766 5.74676 59.5949 5.69143 59.6263 5.64326C59.9143 5.20783 60.3565 4.7484 60.5245 4.31298C61.872 0.880976 55.4365 0.616976 55.9097 4.01469C55.9851 4.5564 56.3177 5.03983 56.5988 5.5404C56.6239 5.58634 56.6329 5.63939 56.6241 5.69101C56.6154 5.74263 56.5896 5.78982 56.5508 5.82498C55.8194 6.48555 55.3314 7.25698 55.0868 8.13926" stroke="#937175" stroke-width="0.685714"/>
<path d="M50.8147 8.7598L50.1187 6.53466C50.0227 6.2238 49.817 6.10837 49.5016 6.18837C48.5279 6.44209 45.5279 6.7438 46.7039 8.58837C46.9279 8.94037 47.1873 9.02494 47.4822 8.84209C47.8559 8.61237 47.9107 7.9918 48.1576 7.6078C48.2183 7.51429 48.3063 7.44165 48.4096 7.39968C48.5129 7.35772 48.6266 7.34844 48.7353 7.37311C48.8441 7.39777 48.9426 7.45519 49.0177 7.53762C49.0928 7.62005 49.1408 7.72352 49.1553 7.83409L49.2547 8.59523C49.2611 8.64848 49.2474 8.7022 49.2164 8.74592C49.1853 8.78965 49.1391 8.82026 49.0867 8.8318L47.5747 9.15066C47.1222 9.24666 46.9439 9.52094 47.0399 9.97352C47.2296 10.8672 47.4444 11.6558 47.6844 12.3392C47.8422 12.7918 48.1347 12.9849 48.5622 12.9187" stroke="#5E7F9D" stroke-width="0.685714"/>
<path d="M45.3324 13.3437C45.5896 14.0054 46.3781 14.0672 46.673 13.498C46.7129 13.4214 46.7363 13.3372 46.7416 13.251C46.7469 13.1648 46.734 13.0784 46.7039 12.9974L44.849 8.01231C44.8285 7.95729 44.7972 7.90691 44.757 7.86411C44.7168 7.82131 44.6685 7.78694 44.6149 7.763C44.5613 7.73907 44.5034 7.72604 44.4447 7.7247C44.386 7.72335 44.3277 7.73371 44.273 7.75516L44.081 7.83402C43.6513 8.00545 43.5153 8.3083 43.673 8.74259L44.5816 11.2626" stroke="#5E7F9D" stroke-width="0.685714"/>
<path d="M42.7473 11.0261C42.9393 10.4706 42.8056 9.91064 42.3462 9.34607C42.2468 9.22404 42.1101 9.13812 41.957 9.10156C41.804 9.065 41.6431 9.07983 41.4993 9.14378C40.7976 9.45464 40.0936 9.7975 39.3873 10.1724C38.3862 10.7072 39.3051 12.1095 39.5931 12.8466" stroke="#5E7F9D" stroke-width="0.685714"/>
<path d="M38.8287 14.105L37.3338 11.7496C37.2976 11.692 37.2487 11.6435 37.191 11.6076C37.1332 11.5716 37.068 11.5492 37.0001 11.5419C36.9323 11.5347 36.8635 11.5428 36.799 11.5657C36.7345 11.5886 36.6759 11.6257 36.6275 11.6741C35.9555 12.3576 35.1578 12.8193 34.2344 13.0593C34.1292 13.0867 34.0344 13.1336 33.9498 13.1999L33.6961 13.4021" stroke="#5E7F9D" stroke-width="0.685714"/>
<path d="M26.5679 17.0639L25.7382 16.1587C25.691 16.1074 25.6331 16.0671 25.5686 16.0405C25.5042 16.014 25.4346 16.002 25.365 16.0052C25.2954 16.0085 25.2273 16.027 25.1656 16.0595C25.1039 16.0919 25.0501 16.1375 25.0079 16.193L24.8707 16.3747C24.7574 16.5237 24.7013 16.7084 24.7126 16.8953C24.7239 17.0822 24.8019 17.2588 24.9324 17.393L26.4376 18.9461C26.5155 19.0264 26.5604 19.1331 26.5636 19.2454C26.5668 19.3576 26.5279 19.4673 26.4547 19.553L25.3062 20.8833C25.2749 20.9211 25.252 20.9648 25.239 21.0115C25.226 21.0582 25.2232 21.1068 25.2307 21.1541C25.3199 21.6799 25.6079 22.1427 26.0947 22.5427" stroke="#5E7F9D" stroke-width="0.685714"/>
<path d="M25.6183 23.9346L24.36 22.906C24.2209 22.792 24.0436 22.735 23.8637 22.7465C23.6837 22.7579 23.5144 22.837 23.3897 22.9677L22.8034 23.5883" stroke="#5E7F9D" stroke-width="0.685714"/>
<path d="M43.0916 7.25264C43.1715 7.29021 43.2599 7.30752 43.3519 7.30357C43.4439 7.29962 43.5375 7.27449 43.6276 7.22961C43.7177 7.18474 43.8024 7.121 43.8769 7.04203C43.9514 6.96306 44.0142 6.87042 44.0617 6.76938C44.1093 6.66835 44.1406 6.5609 44.154 6.45318C44.1673 6.34545 44.1625 6.23956 44.1396 6.14155C44.1168 6.04354 44.0764 5.95533 44.0208 5.88195C43.9652 5.80857 43.8955 5.75147 43.8157 5.7139C43.7358 5.67632 43.6474 5.65902 43.5554 5.66297C43.4635 5.66692 43.3698 5.69205 43.2797 5.73693C43.1896 5.7818 43.1049 5.84554 43.0304 5.92451C42.9559 6.00347 42.8931 6.09612 42.8456 6.19715C42.7981 6.29819 42.7667 6.40564 42.7533 6.51336C42.74 6.62109 42.7449 6.72698 42.7677 6.82499C42.7906 6.923 42.8309 7.01121 42.8865 7.08459C42.9421 7.15796 43.0118 7.21507 43.0916 7.25264Z" stroke="#5E7F9D" stroke-width="0.685714"/>
<path d="M94.6459 14.5293C94.7365 14.5767 94.8364 14.6041 94.9398 14.61C95.0433 14.6158 95.1484 14.6001 95.249 14.5636C95.3496 14.5271 95.4439 14.4706 95.5263 14.3973C95.6088 14.324 95.6778 14.2353 95.7296 14.1364C95.7813 14.0374 95.8147 13.9301 95.8278 13.8206C95.841 13.711 95.8336 13.6014 95.8061 13.4979C95.7787 13.3945 95.7316 13.2992 95.6677 13.2176C95.6039 13.136 95.5244 13.0696 95.4338 13.0223C95.3432 12.9749 95.2433 12.9475 95.1399 12.9416C95.0364 12.9358 94.9313 12.9515 94.8307 12.988C94.7301 13.0245 94.6358 13.081 94.5534 13.1543C94.4709 13.2276 94.4018 13.3163 94.3501 13.4152C94.2984 13.5142 94.265 13.6215 94.2519 13.731C94.2387 13.8406 94.2461 13.9502 94.2736 14.0537C94.301 14.1571 94.3481 14.2524 94.4119 14.334C94.4758 14.4156 94.5553 14.482 94.6459 14.5293Z" stroke="#656B86" stroke-width="0.685714"/>
<path d="M70.7074 6.89118L69.3771 6.6786C68.9817 6.6146 68.7646 6.78261 68.7257 7.18261L68.5371 9.10946C68.5006 9.46832 68.6629 9.66146 69.024 9.68889L70.5429 9.79518C70.5821 9.79779 70.6204 9.80812 70.6556 9.82557C70.6908 9.84303 70.7222 9.86727 70.748 9.89689C70.7738 9.92652 70.7935 9.96096 70.8059 9.99822C70.8184 10.0355 70.8234 10.0748 70.8206 10.114L70.7726 10.9163C70.7566 11.1677 70.6263 11.2637 70.3817 11.2043C69.3029 10.9437 68.2069 10.8283 67.0937 10.858C67.0625 10.8587 67.0315 10.8527 67.0027 10.8404C66.974 10.8281 66.9482 10.8099 66.9271 10.7868C66.906 10.7638 66.8901 10.7365 66.8804 10.7068C66.8707 10.6771 66.8674 10.6457 66.8709 10.6146L67.2754 6.76432" stroke="#6B708C" stroke-width="0.685714"/>
<path d="M62.4242 6.77804L62.0676 8.03633C62.0262 8.18375 62.0407 8.34129 62.1084 8.47863C62.1762 8.61597 62.2923 8.72343 62.4344 8.78033L62.9281 8.97576C62.9886 8.99895 63.0394 9.04235 63.0724 9.09895C63.1054 9.15556 63.1186 9.22207 63.1099 9.28776C63.0436 9.74261 62.847 10.1346 62.5202 10.4638C62.4719 10.5133 62.4081 10.5447 62.3395 10.5528C62.2708 10.5609 62.2015 10.5452 62.143 10.5083L61.1281 9.88433C61.0551 9.83921 60.9694 9.81944 60.8844 9.82813C60.7994 9.83682 60.7199 9.87347 60.6584 9.93233C58.8927 11.6363 54.8642 11.4066 55.087 8.13918" stroke="#99767B" stroke-width="0.685714"/>
<path d="M57.7819 4.24442C57.7999 4.33042 57.8405 4.41005 57.8996 4.4751C57.9586 4.54015 58.034 4.58826 58.1178 4.61446C58.2017 4.64067 58.291 4.64402 58.3766 4.62418C58.4622 4.60433 58.5409 4.562 58.6047 4.50156L58.9304 4.19642C59.0144 4.11895 59.069 4.01474 59.0847 3.90156L59.143 3.44556C59.1516 3.38039 59.1471 3.31416 59.1298 3.25074C59.1125 3.18733 59.0827 3.12802 59.0421 3.07628C59.0015 3.02455 58.9511 2.98143 58.8936 2.94947C58.8362 2.9175 58.7729 2.89733 58.7076 2.89014L58.1487 2.82842C58.071 2.81965 57.9923 2.82948 57.9191 2.85709C57.8459 2.8847 57.7803 2.92931 57.7278 2.98723C57.6752 3.04516 57.6372 3.11474 57.6168 3.19025C57.5964 3.26577 57.5942 3.34505 57.6104 3.42156L57.7819 4.24442Z" stroke="#99767B" stroke-width="0.685714"/>
<path d="M59.4204 8.39291L58.2136 6.99405C58.1751 6.94918 58.1282 6.91233 58.0755 6.88563C58.0228 6.85892 57.9653 6.84288 57.9064 6.83842C57.8475 6.83396 57.7882 6.84117 57.7321 6.85964C57.676 6.87811 57.624 6.90748 57.5793 6.94605L57.5278 6.98719C57.3544 7.13692 57.2053 7.31145 57.0892 7.50078C56.973 7.69012 56.8921 7.89053 56.851 8.09055C56.8099 8.29057 56.8095 8.48626 56.8497 8.6664C56.89 8.84654 56.9701 9.0076 57.0856 9.14034L57.1336 9.1952C57.2481 9.32868 57.3957 9.4314 57.568 9.49745C57.7403 9.56351 57.934 9.59161 58.1378 9.58014C58.3416 9.56868 58.5516 9.51787 58.7559 9.43064C58.9601 9.3434 59.1544 9.22145 59.3278 9.07177L59.3758 9.0272C59.4205 8.98851 59.457 8.9414 59.4834 8.88857C59.5098 8.83573 59.5256 8.77821 59.5297 8.7193C59.5338 8.66038 59.5263 8.60123 59.5076 8.54522C59.4888 8.48921 59.4592 8.43746 59.4204 8.39291Z" stroke="#937175" stroke-width="0.685714"/>
<path d="M75.8846 10.577L75.4149 12.0136C75.3936 12.0814 75.3471 12.1385 75.2847 12.1735C75.2224 12.2085 75.1488 12.2187 75.0789 12.2021C74.2331 12.0079 73.3806 11.8101 72.5211 11.609C71.2217 11.3004 71.7771 9.25701 72.9874 9.29472C73.1657 9.30158 73.2663 9.39301 73.2891 9.56901L73.4194 10.5324C73.456 10.8021 73.6091 10.9439 73.8789 10.9576L73.9714 10.9644C74.2457 10.9781 74.4091 10.8501 74.4617 10.5804C74.6469 9.59986 73.2206 8.64672 72.648 7.91644" stroke="#6B708C" stroke-width="0.685714"/>
<path d="M50.8147 8.75985L51.6307 11.7838C51.64 11.8194 51.6413 11.8565 51.6346 11.8926C51.6279 11.9286 51.6134 11.9627 51.592 11.9922C51.5707 12.0218 51.5431 12.0461 51.5112 12.0635C51.4794 12.0808 51.4441 12.0907 51.4079 12.0924C50.4067 12.1313 49.4582 12.4067 48.5622 12.9187" stroke="#6484A3" stroke-width="0.685714"/>
<path d="M49.2816 11.6418C49.4669 11.6321 49.6392 11.5211 49.7607 11.3331C49.8822 11.1452 49.9429 10.8957 49.9295 10.6397C49.916 10.3836 49.8296 10.1419 49.6891 9.96767C49.5486 9.79347 49.3656 9.70106 49.1804 9.71077C48.9952 9.72048 48.8228 9.83152 48.7013 10.0195C48.5798 10.2074 48.5191 10.4568 48.5325 10.7129C48.546 10.969 48.6324 11.2107 48.7729 11.3849C48.9134 11.5591 49.0964 11.6515 49.2816 11.6418Z" stroke="#6484A3" stroke-width="0.685714"/>
<path d="M76.8789 10.9027L75.6652 14.1941C75.5349 14.5438 75.6355 14.8044 75.9669 14.9758L76.2652 15.1267C76.3258 15.1576 76.3922 15.1758 76.46 15.18C76.5279 15.1843 76.5959 15.1745 76.6596 15.1513C76.7234 15.1281 76.7815 15.092 76.8305 15.0453C76.8794 14.9986 76.9181 14.9423 76.944 14.8798L77.5955 13.3301C77.6091 13.298 77.6292 13.269 77.6545 13.2449C77.6798 13.2209 77.7098 13.2023 77.7427 13.1904C77.7755 13.1785 77.8104 13.1735 77.8453 13.1757C77.8801 13.1779 77.9141 13.1873 77.9452 13.2033C78.5258 13.505 79.1452 13.6604 79.8035 13.6696C79.92 13.6718 80.024 13.6364 80.1155 13.5633C80.7292 13.0627 81.144 11.849 81.3429 11.2524" stroke="#6B708C" stroke-width="0.685714"/>
<path d="M82.2926 11.9415L81.336 13.8717C81.2946 13.9552 81.2704 14.0461 81.265 14.1391C81.2595 14.2321 81.2729 14.3252 81.3042 14.4129C81.3356 14.5006 81.3843 14.5811 81.4475 14.6495C81.5107 14.718 81.5871 14.7729 81.672 14.8112C82.4743 15.1723 83.288 15.562 84.1131 15.9803C84.6206 16.2386 85.0914 15.7049 85.5257 14.3792C85.5402 14.3357 85.5451 14.2896 85.5399 14.244C85.5348 14.1985 85.5198 14.1546 85.496 14.1154C85.4722 14.0763 85.4401 14.0428 85.402 14.0173C85.3639 13.9918 85.3207 13.9749 85.2754 13.9677L84.648 13.8717C84.5434 13.8561 84.4366 13.876 84.3446 13.9282C84.2526 13.9804 84.1808 14.0619 84.1406 14.1597C84.008 14.4889 83.7566 14.5917 83.3863 14.4683C83.2549 14.4237 83.1438 14.3334 83.0734 14.2139C83.0029 14.0943 82.9777 13.9535 83.0023 13.8169C83.0709 13.4192 83.2446 13.0706 83.5234 12.7712C83.5613 12.7312 83.6108 12.7041 83.6649 12.6936C83.719 12.6832 83.7751 12.6899 83.8251 12.7129L85.5909 13.5255C85.712 13.5826 85.8171 13.5586 85.9063 13.4535L86.4583 12.7952" stroke="#6B708C" stroke-width="0.685714"/>
<path d="M87.9601 12.8055L85.8756 16.0969C85.7713 16.2613 85.7363 16.4602 85.778 16.6508C85.8197 16.8414 85.9348 17.0082 86.0984 17.1152L88.5979 18.7541C88.6374 18.7806 88.6848 18.7933 88.7331 18.7902C88.7813 18.7872 88.8277 18.7684 88.8653 18.7369C89.1533 18.4969 89.391 18.2089 89.5784 17.8729" stroke="#6B708C" stroke-width="0.685714"/>
<path d="M90.3943 18.6033C89.8572 19.193 89.7875 19.7301 90.1852 20.2147C90.4755 20.5667 90.7566 20.5598 91.0286 20.1941L91.8 19.1656" stroke="#6B708C" stroke-width="0.685714"/>
<path d="M92.3417 20.2969C92.0103 20.658 91.8571 21.0283 91.8823 21.4077C91.8864 21.4629 91.9051 21.5159 91.9365 21.5611C91.9678 21.6064 92.0107 21.6422 92.0606 21.6649C92.9109 22.0649 93.5657 22.674 94.0251 23.4923C94.0626 23.559 94.1155 23.6158 94.1794 23.6579C94.2433 23.7001 94.3164 23.7264 94.3927 23.7348C94.469 23.7432 94.5463 23.7333 94.6183 23.7061C94.6903 23.6788 94.7549 23.6349 94.8069 23.578L96.7817 21.4146" stroke="#6B708C" stroke-width="0.685714"/>
<path d="M97.1829 22.5906L95.4823 24.3563C95.4405 24.4 95.4078 24.4516 95.3863 24.508C95.3648 24.5645 95.3549 24.6246 95.3571 24.6848C95.3593 24.745 95.3737 24.804 95.3994 24.8583C95.425 24.9126 95.4614 24.9611 95.5063 25.0009L95.9177 25.3643C96.1463 25.5678 96.368 25.5598 96.5829 25.3403L98.0914 23.794" stroke="#6B708C" stroke-width="0.685714"/>
<path d="M98.6947 24.8947L97.3816 25.9815C97.2564 26.084 97.1694 26.2257 97.1345 26.3837C97.0997 26.5417 97.1191 26.7068 97.1896 26.8524L97.313 27.113C97.4867 27.4764 97.7336 27.5347 98.0536 27.2878C98.5473 26.9084 99.7542 25.9335 101.674 24.3632C102.06 24.0455 102.32 23.7187 102.452 23.3827" stroke="#6B708C" stroke-width="0.685714"/>
<path d="M103.968 22.5289C104.366 22.1038 104.43 21.7106 104.16 21.3495" stroke="#6B708C" stroke-width="0.685714"/>
<path d="M88.1863 45.0649C87.8126 37.1483 86.568 29.6706 83.7703 22.1552C83.7337 22.0569 83.6629 22.0043 83.5577 21.9975C74.9794 21.5175 67.4366 23.7597 60.1714 28.2889C60.0814 28.3451 59.9775 28.377 59.8697 28.3815C59.7691 28.386 59.6743 28.4135 59.5851 28.4637" stroke="#6B708C" stroke-width="0.685714"/>
<path d="M59.5852 28.4639C59.4526 28.3176 59.3074 28.1976 59.1497 28.1039C52.6046 24.2433 44.8354 22.1279 37.2652 22.8444C36.9566 22.8719 36.7566 23.0342 36.6652 23.3313C34.9349 28.977 33.8606 34.6947 33.4423 40.4844" stroke="#6484A3" stroke-width="0.685714"/>
<path d="M20.129 39.586L20.657 38.0192C20.8056 37.578 20.6616 37.2752 20.225 37.1106L12.593 34.2683C12.5034 34.2354 12.4044 34.2384 12.3164 34.2766C12.2284 34.3149 12.1581 34.3855 12.1199 34.474L10.7656 37.7209C10.7227 37.8241 10.7007 37.9349 10.7009 38.0467C10.7011 38.1585 10.7236 38.2691 10.767 38.3722C10.8104 38.4752 10.8738 38.5686 10.9536 38.6469C11.0335 38.7252 11.128 38.7869 11.2319 38.8283L14.1873 39.9974" stroke="#6484A3" stroke-width="0.685714"/>
<path d="M22.8033 23.5884C22.1313 24.2707 21.017 25.3816 21.8193 26.0947C22.9828 27.1324 24.1439 28.1278 25.3028 29.081C25.3671 29.1334 25.4411 29.1725 25.5205 29.1963C25.5999 29.22 25.6831 29.2277 25.7654 29.2191C25.8476 29.2105 25.9273 29.1857 25.9997 29.1461C26.0721 29.1065 26.1359 29.0529 26.1873 28.9884L28.0113 26.7324C28.0945 26.6305 28.1348 26.5001 28.124 26.3685C28.1131 26.237 28.0519 26.1143 27.953 26.0261L25.6182 23.9347" stroke="#6484A3" stroke-width="0.685714"/>
<path d="M26.095 22.5426C26.7498 23.3003 28.1898 25.0695 29.1704 25.2923C29.2329 25.3064 29.2981 25.3012 29.3575 25.2773C29.4169 25.2534 29.4677 25.212 29.503 25.1586C30.0173 24.3792 30.6618 23.7209 31.4367 23.1838C31.5082 23.1341 31.5682 23.0695 31.6124 22.9945C31.6566 22.9194 31.684 22.8357 31.6928 22.7491C31.7016 22.6624 31.6916 22.5749 31.6633 22.4925C31.6351 22.4101 31.5894 22.3348 31.5293 22.2718L26.5681 17.0638" stroke="#6484A3" stroke-width="0.685714"/>
<path d="M33.6961 13.402L36.4869 18.4455C36.6675 18.7723 36.8961 18.8112 37.1727 18.562L37.4881 18.2843C37.5969 18.1874 37.6689 18.0558 37.692 17.9116C37.7151 17.7674 37.6879 17.6193 37.6149 17.4923L35.7292 14.2249C35.6416 14.0714 35.6145 13.8908 35.6532 13.7187C35.692 13.5467 35.7937 13.3958 35.9384 13.2957L36.0892 13.1929C36.141 13.157 36.1997 13.1324 36.2615 13.1206C36.3233 13.1087 36.3868 13.11 36.4479 13.1242C36.5091 13.1384 36.5664 13.1653 36.6162 13.2031C36.6661 13.241 36.7073 13.2889 36.7372 13.3437L38.6744 16.8992C38.7499 17.0383 38.8749 17.1438 39.0243 17.1947C39.1737 17.2456 39.3365 17.238 39.4801 17.1735L39.6207 17.1083C40.0664 16.9095 40.1727 16.594 39.9395 16.162L38.8287 14.1049" stroke="#6484A3" stroke-width="0.685714"/>
<path d="M39.5933 12.8466L40.8379 15.5346C40.897 15.663 41.004 15.7631 41.1359 15.8137C41.2679 15.8643 41.4144 15.8614 41.5442 15.8055C42.4082 15.4283 43.6562 15.1643 44.3144 14.4375C44.399 14.346 44.4344 14.2386 44.4207 14.1152C44.3522 13.4957 44.1316 12.9357 43.759 12.4352C43.679 12.33 43.5739 12.2855 43.4436 12.3015C42.6482 12.4077 42.6482 13.0112 42.7373 13.6523C42.7784 13.938 42.7464 14.1437 42.6413 14.2695C42.5202 14.4112 42.343 14.4786 42.1099 14.4717C42.0648 14.4706 42.0207 14.4581 41.9817 14.4353C41.9427 14.4125 41.9102 14.3802 41.887 14.3415C41.0139 12.9106 40.5339 11.874 40.447 11.2317C40.3899 10.8112 40.5773 10.5277 41.0093 10.3815C41.0682 10.36 41.1329 10.3599 41.1923 10.3812C41.2517 10.4024 41.3021 10.4437 41.335 10.498C41.7019 11.1049 41.9864 11.5095 42.7476 11.026" stroke="#6484A3" stroke-width="0.685714"/>
<path d="M44.5818 11.2626L45.3327 13.3438" stroke="#6484A3" stroke-width="0.685714"/>
<path d="M33.1919 21.5689L35.3896 19.858C35.5302 19.7478 35.6215 19.5863 35.6433 19.409C35.6652 19.2316 35.6158 19.0528 35.5061 18.9117L32.8079 15.4454C32.6356 15.2253 32.3783 15.0862 32.0923 15.0586C31.8064 15.0309 31.515 15.117 31.2821 15.298L29.777 16.4672C29.6614 16.5571 29.5638 16.6678 29.4897 16.7928C29.4156 16.9179 29.3665 17.0549 29.3452 17.1959C29.3238 17.337 29.3307 17.4794 29.3654 17.615C29.4001 17.7505 29.4619 17.8766 29.5473 17.986L32.2456 21.4523C32.3558 21.593 32.5173 21.6842 32.6946 21.7061C32.872 21.7279 33.0508 21.6786 33.1919 21.5689Z" stroke="#6484A3" stroke-width="0.685714"/>
<path d="M104.942 26.5334L103.91 25.162C103.845 25.075 103.763 25.0016 103.669 24.9462C103.576 24.8908 103.472 24.8544 103.365 24.8391C103.257 24.8239 103.147 24.83 103.042 24.8571C102.937 24.8843 102.838 24.932 102.751 24.9974L99.1099 27.7403C99.0063 27.8189 98.9203 27.9182 98.8575 28.0319C98.7947 28.1457 98.7564 28.2712 98.745 28.4005C98.7337 28.5297 98.7497 28.6598 98.7918 28.7823C98.834 28.9048 98.9015 29.0171 98.9899 29.1117C99.6596 29.834 100.214 30.6294 100.653 31.498C100.668 31.5273 100.69 31.553 100.716 31.5733C100.742 31.5935 100.772 31.6079 100.804 31.6154C100.837 31.6229 100.87 31.6233 100.902 31.6166C100.935 31.61 100.965 31.5964 100.992 31.5769L108.086 26.338C108.49 26.0409 108.575 25.6706 108.34 25.2271L108.233 25.0317C108.062 24.7094 107.83 24.6569 107.537 24.874L105.261 26.578C105.14 26.6694 105.033 26.6546 104.942 26.5334Z" stroke="#6B708C" stroke-width="0.685714"/>
<path d="M18 27.2603C17.928 27.8226 18.7714 28.5392 18.9394 29.2146C18.9712 29.3412 19.0506 29.4508 19.1611 29.5204C19.2716 29.59 19.4046 29.6143 19.5326 29.5883C20.712 29.3518 22.4057 30.9392 23.3657 31.6249C23.7954 31.9312 24.1646 31.8695 24.4731 31.4397L25.1589 30.4798C25.2094 30.4082 25.2393 30.3241 25.2455 30.2367C25.2516 30.1493 25.2336 30.062 25.1936 29.9843C25.1536 29.9067 25.093 29.8418 25.0185 29.7968C24.944 29.7517 24.8585 29.7282 24.7714 29.7289C24.4606 29.7289 24.2057 29.842 24.0069 30.0683C23.9572 30.1248 23.8884 30.1609 23.8138 30.1697C23.7391 30.1786 23.6638 30.1596 23.6023 30.1163C22.512 29.3449 21.0103 28.7929 21.0686 27.154C21.0695 27.127 21.065 27.1002 21.0554 27.075C21.0458 27.0498 21.0312 27.0269 21.0126 27.0077C20.994 26.9884 20.9717 26.9732 20.9472 26.963C20.9226 26.9528 20.8962 26.9478 20.8697 26.9483C20.552 26.9506 20.2537 27.0295 19.9749 27.1849C19.9228 27.214 19.8639 27.2287 19.8042 27.2275C19.7446 27.2263 19.6863 27.2092 19.6354 27.178C19.2926 26.9723 18.9806 26.7289 18.6103 26.7152C18.2514 26.7015 18.048 26.8832 18 27.2603Z" stroke="#6484A3" stroke-width="0.685714"/>
<path d="M105.813 32.7803L104.955 31.0626C104.922 30.9954 104.866 30.9415 104.798 30.9097C104.73 30.878 104.652 30.8702 104.578 30.8877C103.447 31.1712 102.467 31.7197 101.64 32.5335C101.564 32.6082 101.519 32.7086 101.513 32.8146C101.507 32.9207 101.541 33.0247 101.609 33.106C102.274 33.9152 102.743 34.826 103.015 35.8386C103.025 35.8771 103.044 35.9128 103.07 35.9431C103.096 35.9733 103.129 35.9974 103.165 36.0135C103.202 36.0296 103.241 36.0373 103.281 36.0361C103.321 36.035 103.36 36.0249 103.395 36.0066L108.113 33.49C108.206 33.441 108.288 33.3741 108.355 33.2932C108.422 33.2123 108.472 33.1189 108.503 33.0186C108.533 32.9182 108.544 32.8127 108.533 32.7083C108.523 32.6038 108.492 32.5025 108.442 32.41L107.088 29.8832C107.059 29.8284 107.012 29.7849 106.955 29.7595C106.898 29.734 106.834 29.7281 106.773 29.7426C106.242 29.8706 105.792 30.1369 105.422 30.5415C105.342 30.6306 105.312 30.7346 105.333 30.8535C105.383 31.1323 105.525 31.3506 105.758 31.5083C105.804 31.5393 105.858 31.5566 105.913 31.5585C105.968 31.5603 106.022 31.5465 106.07 31.5186C107.194 30.8706 107.369 32.7632 106.09 32.9278C105.962 32.946 105.87 32.8969 105.813 32.7803Z" stroke="#6B708C" stroke-width="0.685714"/>
<path d="M18.1851 32.1769C18.2926 31.9757 18.4514 31.9197 18.6617 32.0089L19.6834 32.4375C19.7111 32.4491 19.7407 32.455 19.7707 32.4549C19.8007 32.4547 19.8303 32.4486 19.8578 32.4367C19.8854 32.4249 19.9102 32.4076 19.9309 32.3859C19.9516 32.3643 19.9677 32.3386 19.9783 32.3106C20.4309 31.1106 19.4297 30.7129 18.5657 30.3837C18.4964 30.3574 18.4226 30.345 18.3484 30.3473C18.2743 30.3495 18.2013 30.3665 18.1338 30.3971C18.0662 30.4276 18.0054 30.4713 17.9548 30.5255C17.9042 30.5797 17.8648 30.6434 17.8389 30.7129C17.5531 31.4809 17.1486 32.1792 16.6251 32.8077C16.5671 32.8782 16.5252 32.9604 16.5022 33.0487C16.4792 33.137 16.4758 33.2292 16.4921 33.319C16.5084 33.4087 16.5441 33.4938 16.5967 33.5684C16.6493 33.6429 16.7175 33.7051 16.7966 33.7506L21.072 36.202C21.5269 36.4649 21.8343 36.346 21.9943 35.8455L22.0354 35.7152C22.0799 35.5756 22.0752 35.4251 22.0221 35.289C21.9691 35.1529 21.8709 35.0394 21.744 34.9677L18.3154 33.0169C18.016 32.8477 17.9486 32.6112 18.1131 32.3072L18.1851 32.1769Z" stroke="#6484A3" stroke-width="0.685714"/>
<path d="M110.421 36.7473C110.21 36.0318 109.855 35.3975 109.354 34.8444C109.298 34.7832 109.225 34.7407 109.144 34.7229C109.064 34.7051 108.98 34.7128 108.905 34.745L104.424 36.6273C104.25 36.6999 104.111 36.837 104.036 37.0098C103.961 37.1826 103.956 37.3774 104.023 37.553L105.089 40.3781C105.21 40.6958 105.426 40.7895 105.737 40.6593L113.887 37.2753C114.068 37.1998 114.14 37.0661 114.103 36.8741L113.945 36.0307C113.906 35.825 113.79 35.7598 113.596 35.8353L110.784 36.9255C110.597 36.9987 110.476 36.9393 110.421 36.7473Z" stroke="#6B708C" stroke-width="0.685714"/>
<path d="M80.4549 9.20373C80.5081 9.06442 80.5038 8.90967 80.4429 8.77355C80.382 8.63742 80.2695 8.53106 80.1302 8.47787L80.0918 8.46319C79.9525 8.41 79.7977 8.41432 79.6616 8.47521C79.5255 8.5361 79.4191 8.64857 79.3659 8.78788L78.2945 11.5937C78.2413 11.733 78.2456 11.8878 78.3065 12.0239C78.3674 12.16 78.4799 12.2664 78.6192 12.3196L78.6576 12.3343C78.7969 12.3875 78.9517 12.3831 79.0878 12.3222C79.2239 12.2613 79.3303 12.1489 79.3835 12.0096L80.4549 9.20373Z" stroke="#6B708C" stroke-width="0.685714"/>
<path d="M84.6552 12.1128C84.7385 12.1376 84.8271 12.1417 84.9159 12.1248C85.0047 12.108 85.092 12.0705 85.1728 12.0145C85.2536 11.9585 85.3263 11.8852 85.3868 11.7986C85.4473 11.712 85.4944 11.6139 85.5254 11.51C85.5564 11.406 85.5707 11.2981 85.5675 11.1925C85.5643 11.0869 85.5436 10.9857 85.5066 10.8946C85.4697 10.8036 85.4171 10.7244 85.3521 10.6617C85.287 10.5989 85.2106 10.5539 85.1274 10.529C85.0441 10.5042 84.9555 10.5001 84.8667 10.517C84.7779 10.5338 84.6906 10.5713 84.6098 10.6273C84.529 10.6833 84.4563 10.7566 84.3957 10.8432C84.3352 10.9298 84.2881 11.0279 84.2571 11.1318C84.2261 11.2358 84.2118 11.3437 84.2151 11.4493C84.2183 11.5549 84.239 11.6561 84.276 11.7472C84.3129 11.8382 84.3654 11.9174 84.4305 11.9801C84.4956 12.0429 84.572 12.0879 84.6552 12.1128Z" stroke="#6B708C" stroke-width="0.685714"/>
<path d="M32.0885 16.8306C32.0413 16.7686 31.9824 16.7165 31.915 16.6774C31.8477 16.6382 31.7733 16.6126 31.6961 16.6022C31.619 16.5918 31.5405 16.5966 31.4651 16.6165C31.3898 16.6364 31.3192 16.671 31.2572 16.7182L31.2027 16.7597C31.0775 16.8551 30.9954 16.9962 30.9743 17.1521C30.9532 17.308 30.995 17.4658 31.0903 17.591L32.794 19.8274C32.8412 19.8894 32.9001 19.9414 32.9674 19.9806C33.0348 20.0198 33.1091 20.0453 33.1863 20.0558C33.2635 20.0662 33.342 20.0613 33.4173 20.0414C33.4927 20.0215 33.5633 19.987 33.6253 19.9398L33.6798 19.8982C33.8049 19.8029 33.8871 19.6618 33.9082 19.5059C33.9292 19.35 33.8875 19.1921 33.7922 19.067L32.0885 16.8306Z" stroke="#6484A3" stroke-width="0.685714"/>
<path d="M28.927 23.5061C28.9755 23.5587 29.0358 23.5991 29.1028 23.624C29.1699 23.649 29.2418 23.6578 29.3129 23.6498C29.384 23.6418 29.4522 23.6172 29.5121 23.5779C29.5719 23.5387 29.6216 23.4859 29.6573 23.4239L29.9041 22.9919C29.9535 22.9059 29.9735 22.8062 29.9612 22.7078C29.9488 22.6094 29.9047 22.5178 29.8355 22.4467L27.7681 20.3381C27.7195 20.2883 27.6601 20.2502 27.5945 20.2269C27.5289 20.2036 27.4588 20.1956 27.3896 20.2035C27.3205 20.2115 27.254 20.2351 27.1954 20.2727C27.1368 20.3103 27.0876 20.3609 27.0515 20.4204L26.8493 20.753C26.7977 20.8372 26.7748 20.9359 26.784 21.0342C26.7933 21.1325 26.8343 21.2251 26.9007 21.2981L28.927 23.5061Z" stroke="#6484A3" stroke-width="0.685714"/>
<path d="M96.3633 18.3015C96.3394 18.2747 96.3075 18.2562 96.2723 18.2488C96.2372 18.2414 96.2005 18.2454 96.1678 18.2604L95.0741 18.761C95.0497 18.7724 95.0283 18.7895 95.0119 18.8109C94.9954 18.8323 94.9844 18.8573 94.9797 18.8839C94.975 18.9105 94.9767 18.9378 94.9848 18.9635C94.9929 18.9893 95.0071 19.0127 95.0261 19.0318L95.9793 19.9918C95.9957 20.0082 96.0153 20.021 96.037 20.0295C96.0586 20.0379 96.0818 20.0417 96.1049 20.0408C96.1281 20.0398 96.1509 20.0341 96.1717 20.0239C96.1926 20.0137 96.2111 19.9993 96.2261 19.9815L96.9221 19.1518C96.948 19.1209 96.9618 19.0818 96.9612 19.0415C96.9606 19.0012 96.9455 18.9625 96.9187 18.9324L96.3633 18.3015Z" stroke="#6B708C" stroke-width="0.685714"/>
<path d="M95.1172 21.1877C95.2158 21.0698 95.2635 20.9176 95.2498 20.7646C95.2362 20.6115 95.1623 20.4701 95.0444 20.3716L94.8971 20.2484C94.8387 20.1996 94.7713 20.1628 94.6987 20.14C94.6261 20.1172 94.5497 20.109 94.4739 20.1158C94.3981 20.1225 94.3244 20.1442 94.257 20.1794C94.1895 20.2147 94.1297 20.2629 94.0809 20.3212L93.6191 20.8736C93.5205 20.9915 93.4728 21.1437 93.4865 21.2968C93.5001 21.4498 93.574 21.5912 93.6919 21.6898L93.8392 21.8129C93.8976 21.8617 93.965 21.8986 94.0376 21.9213C94.1102 21.9441 94.1866 21.9523 94.2624 21.9456C94.3382 21.9388 94.4119 21.9172 94.4793 21.8819C94.5468 21.8467 94.6066 21.7985 94.6554 21.7401L95.1172 21.1877Z" stroke="#6B708C" stroke-width="0.685714"/>
<path d="M88.1865 45.0649C88.2002 50.8797 87.4893 56.5929 86.0539 62.2043C85.711 63.5529 85.367 64.9014 85.0219 66.25" stroke="#717691" stroke-width="0.685714"/>
<path d="M85.0217 66.25C82.7246 73.1643 79.728 79.77 76.032 86.0672C74.448 88.7643 72.8377 91.4409 71.2011 94.0969C71.1851 94.122 71.1634 94.1277 71.136 94.114L71.0606 94.0729C70.9874 94.034 70.968 93.9769 71.0023 93.9015C74.7394 85.7826 77.4629 77.3357 79.1726 68.5609C79.1819 68.5113 79.1768 68.4601 79.1579 68.4133C79.139 68.3666 79.1071 68.3262 79.066 68.2969C79.0249 68.2677 78.9763 68.2509 78.9259 68.2485C78.8755 68.246 78.8255 68.2581 78.7817 68.2832C73.12 71.6272 66.9783 72.338 60.3566 70.4157" stroke="#787D97" stroke-width="0.685714"/>
<path d="M60.3566 70.4158C60.944 70.0569 61.9383 69.6729 63.3394 69.2638C64.4846 68.9323 66.9017 67.8089 70.5909 65.8935C70.76 65.8066 71.2309 65.5255 72.0034 65.05C72.5177 64.7346 73.0194 64.5026 73.5086 64.354" stroke="#2B528D" stroke-width="0.685714"/>
<path d="M73.5087 64.3541L79.6081 63.9804C79.6951 63.9748 79.7774 63.9394 79.8412 63.88C79.9049 63.8206 79.9461 63.741 79.9578 63.6547L80.4756 59.7255" stroke="#717691" stroke-width="0.685714"/>
<path d="M80.4753 59.7254C81.0102 59.3552 81.5576 58.9872 82.1176 58.6214C83.2868 57.8603 84.3393 56.7323 85.6971 56.0294C86.1256 55.81 86.9211 55.2854 86.8593 54.706C86.856 54.6747 86.8444 54.6448 86.8257 54.6193C86.807 54.5939 86.7819 54.5739 86.753 54.5614C86.7241 54.5489 86.6923 54.5442 86.661 54.5479C86.6297 54.5516 86.6 54.5636 86.5748 54.5826C85.7656 55.2066 85.0251 55.738 84.0479 56.146C83.2422 56.4854 82.4022 56.9072 81.5519 57.1163C81.2342 57.1917 80.9188 57.2752 80.6056 57.3666" stroke="#2B528D" stroke-width="0.685714"/>
<path d="M80.6056 57.3667C81.0376 53.8307 81.1702 50.5312 81.0033 47.4684" stroke="#717691" stroke-width="0.685714"/>
<path d="M81.0036 47.4683C81.223 46.314 81.2196 45.5631 80.9933 45.2157" stroke="#274A84" stroke-width="0.685714"/>
<path d="M80.9931 45.2158C81.0206 38.3586 76.3714 34.2169 69.5966 34.9575" stroke="#6B708C" stroke-width="0.685714"/>
<path d="M69.5964 34.9575C67.7176 35.0489 66.0033 35.3666 64.4536 35.9106C63.0067 36.4157 61.5907 36.9152 60.2056 37.4089" stroke="#274A84" stroke-width="0.685714"/>
<path d="M60.2058 37.409C53.1258 40.5633 46.6115 44.5953 39.9635 48.9667C39.8515 49.0399 39.7715 49.1884 39.7235 49.4124" stroke="#717691" stroke-width="0.685714"/>
<path d="M39.7234 49.4123C39.7943 49.5929 39.5771 49.6866 39.072 49.6935C38.1326 49.7037 36.2469 51.0066 35.4343 51.5449C35.3429 51.6066 35.2983 51.5826 35.3006 51.4729C35.3029 51.2969 35.3806 51.1266 35.5337 50.962C37.1703 49.2043 38.7074 47.4432 40.1451 45.6786" stroke="#274A84" stroke-width="0.685714"/>
<path d="M40.1451 45.6787C40.7599 45.137 41.5325 44.3507 42.4628 43.3198C43.9759 41.6398 46.8582 38.8296 51.1097 34.889" stroke="#6B708C" stroke-width="0.685714"/>
<path d="M51.1098 34.8889C52.5612 33.7666 54.1018 32.5643 55.7315 31.282C56.8767 30.3803 58.1075 29.6226 59.3247 28.8306C59.3932 28.7849 59.4801 28.6626 59.5852 28.4638" stroke="#274A84" stroke-width="0.685714"/>
<path d="M25.5773 27.4489C25.6327 27.4952 25.6991 27.5266 25.7701 27.5402C25.8411 27.5537 25.9144 27.549 25.983 27.5263C26.0516 27.5037 26.1134 27.4639 26.1623 27.4107C26.2113 27.3576 26.246 27.2929 26.263 27.2226L26.3795 26.746C26.3981 26.6702 26.3954 26.5908 26.3719 26.5164C26.3483 26.442 26.3047 26.3756 26.2458 26.3243L23.9761 24.3323C23.9279 24.2896 23.8706 24.2583 23.8085 24.241C23.7464 24.2236 23.6812 24.2206 23.6178 24.2321C23.5544 24.2437 23.4944 24.2695 23.4424 24.3077C23.3905 24.3458 23.3479 24.3953 23.3178 24.4523L23.0675 24.9255C23.0225 25.0118 23.0084 25.1111 23.0278 25.2066C23.0471 25.3021 23.0987 25.388 23.1738 25.45L25.5773 27.4489Z" stroke="#6484A3" stroke-width="0.685714"/>
<path d="M51.1097 34.8889C47.9097 34.4432 45.3166 35.2695 43.3303 37.3677C41.352 39.4557 40.512 42.8192 40.1451 45.6786" stroke="#6484A3" stroke-width="0.685714"/>
<path d="M39.7235 49.4124L39.9395 52.7724" stroke="#6A8AA8" stroke-width="0.685714"/>
<path d="M39.9396 52.7724C39.0321 52.4638 38.3636 52.5609 37.9339 53.0638C37.8356 53.1758 37.7236 53.1918 37.5979 53.1118C37.5567 53.0866 37.5099 53.0809 37.4573 53.0946C37.3819 53.1175 37.2996 53.1655 37.2104 53.2386L36.5247 53.8112C36.5082 53.8236 36.4878 53.8296 36.4672 53.8281C36.4466 53.8267 36.4273 53.8178 36.4127 53.8033C36.3981 53.7887 36.3893 53.7693 36.3878 53.7487C36.3863 53.7281 36.3923 53.7077 36.4047 53.6912C36.7179 53.3186 36.9236 53.0992 37.0219 53.0329C37.0356 53.0238 37.0344 53.0192 37.0184 53.0192C36.9956 53.0192 36.967 53.0135 36.9327 53.0021C36.8984 52.9906 36.8664 52.9952 36.8367 53.0158L35.0093 54.3735C34.9407 54.4261 34.903 54.4958 34.8961 54.5826C34.8733 54.8752 34.7213 55.0546 34.4401 55.1209C34.3373 55.1461 34.2699 55.1061 34.2379 55.0009C34.1876 54.8318 34.111 54.6741 34.0081 54.5278" stroke="#2465A4" stroke-width="0.685714"/>
<path d="M34.0079 54.5278C33.4341 50.6215 33.2307 46.6889 33.3976 42.7301C33.4296 41.9712 33.4444 41.2226 33.4421 40.4843" stroke="#6A8AA8" stroke-width="0.685714"/>
<path d="M100.762 28.3472C100.679 28.4116 100.622 28.5042 100.601 28.6077L100.495 29.1357C100.478 29.2219 100.487 29.3113 100.522 29.3921C100.556 29.4729 100.614 29.5414 100.689 29.5885C100.763 29.6356 100.85 29.6592 100.937 29.6561C101.025 29.653 101.11 29.6234 101.181 29.5712L103.718 27.7026C103.794 27.6467 103.85 27.5677 103.877 27.4775C103.904 27.3872 103.901 27.2905 103.869 27.202L103.718 26.7837C103.694 26.7196 103.655 26.6621 103.605 26.6156C103.555 26.5692 103.495 26.5353 103.429 26.5166C103.363 26.4979 103.294 26.495 103.227 26.508C103.16 26.5211 103.096 26.5497 103.042 26.5917L100.762 28.3472Z" stroke="#6B708C" stroke-width="0.685714"/>
<path d="M104.634 32.7352C104.593 32.6821 104.542 32.6376 104.483 32.6043C104.425 32.5709 104.361 32.5494 104.294 32.5408C104.228 32.5323 104.16 32.537 104.096 32.5546C104.031 32.5722 103.97 32.6023 103.917 32.6434L103.358 33.0753C103.305 33.1163 103.261 33.1674 103.227 33.2256C103.194 33.2838 103.172 33.348 103.164 33.4146C103.155 33.4811 103.16 33.5487 103.178 33.6134C103.195 33.6782 103.225 33.7388 103.266 33.7919L103.426 33.998C103.467 34.0511 103.518 34.0956 103.576 34.129C103.634 34.1623 103.699 34.1838 103.765 34.1924C103.832 34.2009 103.899 34.1962 103.964 34.1786C104.029 34.1611 104.089 34.1309 104.142 34.0899L104.701 33.6579C104.754 33.6169 104.799 33.5658 104.832 33.5076C104.865 33.4494 104.887 33.3852 104.896 33.3186C104.904 33.2521 104.899 33.1845 104.882 33.1198C104.864 33.0551 104.834 32.9944 104.793 32.9413L104.634 32.7352Z" stroke="#6B708C" stroke-width="0.685714"/>
<path d="M20.1291 39.586L19.3783 41.4786C19.3377 41.5793 19.2596 41.6603 19.1604 41.7044C19.0613 41.7485 18.9488 41.7524 18.8469 41.7152L14.1874 39.9975" stroke="#6A8AA8" stroke-width="0.685714"/>
<path d="M18.2538 40.0661C18.3198 40.0922 18.3907 40.103 18.4615 40.0979C18.5322 40.0928 18.6009 40.0719 18.6625 40.0367C18.724 40.0015 18.7769 39.9529 18.8171 39.8944C18.8574 39.836 18.8839 39.7693 18.8949 39.6993L19.0766 38.5918C19.0941 38.4844 19.0739 38.3742 19.0196 38.2799C18.9652 38.1856 18.88 38.1129 18.7784 38.0741L13.2344 35.9587C13.1175 35.914 12.9877 35.9173 12.8733 35.9681C12.7589 36.0189 12.6693 36.1129 12.6241 36.2295L12.2504 37.1998C12.2054 37.3163 12.2083 37.4457 12.2584 37.56C12.3085 37.6743 12.4017 37.7642 12.5178 37.8101L18.2538 40.0661Z" stroke="#6484A3" stroke-width="0.685714"/>
<path d="M109.126 36.81C109.1 36.75 109.063 36.6957 109.016 36.6502C108.97 36.6047 108.914 36.5688 108.854 36.5447C108.793 36.5205 108.728 36.5086 108.663 36.5095C108.597 36.5104 108.533 36.5242 108.473 36.55L105.847 37.6811C105.787 37.7069 105.733 37.7443 105.687 37.7911C105.642 37.8379 105.606 37.8932 105.582 37.9538C105.557 38.0145 105.545 38.0793 105.546 38.1446C105.547 38.2099 105.561 38.2743 105.587 38.3343L105.674 38.5358C105.7 38.5958 105.737 38.6501 105.784 38.6956C105.83 38.7411 105.886 38.777 105.946 38.8011C106.007 38.8252 106.072 38.8372 106.137 38.8363C106.202 38.8354 106.267 38.8216 106.327 38.7958L108.953 37.6647C109.013 37.6389 109.067 37.6015 109.113 37.5547C109.158 37.5079 109.194 37.4526 109.218 37.3919C109.243 37.3313 109.255 37.2665 109.254 37.2012C109.253 37.1359 109.239 37.0714 109.213 37.0115L109.126 36.81Z" stroke="#6B708C" stroke-width="0.685714"/>
<path d="M69.5966 34.9575L80.9931 45.2157" stroke="#6484A3" stroke-width="0.685714"/>
<path d="M81.0033 47.4684C74.1439 43.7747 67.2113 40.4216 60.2056 37.409" stroke="#6A8AA8" stroke-width="0.685714"/>
<path d="M80.6058 57.3667C75.8698 59.4741 71.0024 61.2136 66.0035 62.585C64.4767 63.0033 62.9292 63.3393 61.3612 63.593C60.6481 63.7096 60.0241 63.5793 59.3384 63.4524" stroke="#6E92B1" stroke-width="0.685714"/>
<path d="M59.3383 63.4523C52.7326 62.3163 46.4663 60.2992 40.5394 57.4009" stroke="#717691" stroke-width="0.685714"/>
<path d="M40.5394 57.4009L39.9394 52.7723" stroke="#6E92B1" stroke-width="0.685714"/>
<path d="M34.0081 54.5278C34.9853 61.4158 36.9224 68.0158 39.5796 74.4683" stroke="#6E92B1" stroke-width="0.685714"/>
<path d="M40.5396 57.4009C40.2699 57.3277 40.0036 57.2534 39.7407 57.178C39.0379 56.9791 38.3967 56.4203 37.7179 56.0877C37.6908 56.075 37.6607 56.0701 37.631 56.0735C37.6013 56.0769 37.5732 56.0885 37.5497 56.107C37.5262 56.1255 37.5083 56.1502 37.4981 56.1783C37.4878 56.2063 37.4856 56.2367 37.4916 56.266C37.6904 57.1266 39.0379 57.9494 39.6481 58.594C39.8584 58.818 40.103 59.0146 40.3819 59.1837C40.7019 59.378 40.9624 59.5631 41.1636 59.7391" stroke="#2B528D" stroke-width="0.685714"/>
<path d="M41.1633 59.7393L41.8216 63.2981C41.8408 63.398 41.8905 63.4892 41.9638 63.5588C42.0371 63.6283 42.1301 63.6727 42.2296 63.6855L47.3587 64.3747" stroke="#6E92B1" stroke-width="0.685714"/>
<path d="M47.3588 64.3747C49.1577 64.6901 50.4011 64.7964 51.0891 64.6936C52.4697 64.4879 53.856 64.3907 55.248 64.4021C55.8331 64.409 56.3668 64.3747 56.8491 64.2993C57.3817 64.217 57.9143 64.137 58.4468 64.0593C59.128 63.9587 59.4251 63.7564 59.3383 63.4524" stroke="#2B528D" stroke-width="0.685714"/>
<path d="M80.4756 59.7255L73.5087 64.3541" stroke="#6E92B1" stroke-width="0.685714"/>
<path d="M60.3567 70.4158C58.439 70.7038 56.4961 70.8901 54.5281 70.9747C52.2104 71.0752 50.2744 70.9324 48.7201 70.5461C46.759 70.0615 44.9064 69.2604 43.1624 68.1427C43.1425 68.1303 43.1198 68.123 43.0964 68.1213C43.073 68.1197 43.0497 68.1239 43.0286 68.1334C43.0074 68.143 42.9892 68.1576 42.9754 68.176C42.9617 68.1944 42.9529 68.2159 42.9499 68.2387C42.9293 68.3712 42.9396 68.5255 42.9807 68.7015C44.8824 76.681 47.007 84.5095 49.3544 92.1873C49.5807 92.9278 49.4893 92.9701 49.0801 92.3141C45.4904 86.537 42.2161 80.7015 39.5796 74.4684" stroke="#7598B7" stroke-width="0.685714"/>
<path d="M47.3587 64.3747L41.1633 59.7393" stroke="#717691" stroke-width="0.685714"/>
<path d="M71.9144 108.908C71.9253 108.821 71.9675 108.741 72.0331 108.683C72.0988 108.625 72.1833 108.593 72.271 108.593L74.0024 108.586C74.0901 108.585 74.1751 108.617 74.2414 108.674C74.3077 108.731 74.3507 108.811 74.3624 108.898L74.6127 110.684C74.6249 110.769 74.6668 110.846 74.7308 110.903C74.7949 110.959 74.877 110.991 74.9624 110.993L76.0801 111.01C76.1335 111.011 76.1863 110.999 76.2347 110.977C76.2831 110.954 76.3259 110.921 76.36 110.88C76.3942 110.839 76.4187 110.791 76.432 110.74C76.4453 110.688 76.4469 110.634 76.4367 110.582L74.1224 98.6193C74.1063 98.5361 74.0614 98.4613 73.9955 98.408C73.9297 98.3546 73.8471 98.3263 73.7624 98.3278L72.4013 98.3415C72.3178 98.3425 72.2374 98.3725 72.1736 98.4263C72.1098 98.4801 72.0666 98.5543 72.0516 98.6364L69.8058 110.561C69.7964 110.613 69.7982 110.666 69.8114 110.716C69.8245 110.767 69.8486 110.814 69.8819 110.855C69.9152 110.895 69.9569 110.928 70.0042 110.951C70.0515 110.973 70.1031 110.985 70.1556 110.986L71.335 110.996C71.4232 110.997 71.5086 110.965 71.575 110.907C71.6414 110.849 71.6841 110.769 71.695 110.681L71.9144 108.908Z" stroke="#7D9FBD" stroke-width="0.685714"/>
<path d="M79.6903 109.251C79.6242 109.25 79.561 109.224 79.5143 109.177C79.4675 109.13 79.4409 109.067 79.44 109.001L79.3166 98.5677C79.3157 98.5022 79.2895 98.4396 79.2435 98.3929C79.1975 98.3463 79.1352 98.3192 79.0697 98.3175L77.8354 98.29C77.8015 98.2891 77.7678 98.295 77.7362 98.3073C77.7046 98.3197 77.6759 98.3382 77.6516 98.3619C77.6273 98.3855 77.608 98.4138 77.5948 98.445C77.5816 98.4763 77.5748 98.5099 77.5749 98.5438L77.5714 110.695C77.5714 110.762 77.5982 110.826 77.6457 110.874C77.6933 110.922 77.7579 110.948 77.8251 110.948L82.2686 110.979C82.3037 110.979 82.3385 110.972 82.3707 110.958C82.4029 110.944 82.4318 110.924 82.4557 110.898C82.4795 110.872 82.4977 110.842 82.5092 110.808C82.5207 110.775 82.5251 110.74 82.5223 110.705L82.44 109.529C82.4357 109.465 82.4075 109.405 82.3611 109.362C82.3148 109.318 82.2535 109.293 82.1897 109.292L79.6903 109.251Z" stroke="#7D9FBD" stroke-width="0.685714"/>
<path d="M41.8868 98.8867L41.9074 110.722C41.9083 110.822 41.9484 110.917 42.0191 110.987C42.0897 111.057 42.1851 111.096 42.2846 111.096L45.7954 111.092C46.1073 111.092 46.416 111.025 46.7039 110.896C46.9918 110.767 47.2533 110.577 47.4733 110.339C47.6934 110.1 47.8677 109.817 47.9863 109.506C48.1049 109.195 48.1655 108.861 48.1646 108.524L48.1508 101.057C48.149 100.378 47.8977 99.7283 47.4523 99.2494C47.0068 98.7705 46.4035 98.5019 45.7748 98.5027L42.264 98.5061C42.2142 98.5061 42.1648 98.516 42.1189 98.5352C42.0729 98.5543 42.0312 98.5824 41.9961 98.6178C41.961 98.6532 41.9333 98.6952 41.9146 98.7413C41.8958 98.7875 41.8864 98.8369 41.8868 98.8867Z" stroke="#7D9FBD" stroke-width="0.685714"/>
<path d="M54.6755 109.649C54.6678 109.573 54.632 109.502 54.5749 109.45C54.5178 109.399 54.4437 109.371 54.3669 109.371L51.6789 109.378C51.6378 109.378 51.5971 109.37 51.5592 109.354C51.5214 109.338 51.487 109.315 51.4583 109.285C51.4295 109.256 51.4069 109.221 51.3919 109.183C51.3768 109.145 51.3694 109.104 51.3704 109.063L51.4526 105.737C51.4553 105.658 51.4885 105.582 51.5453 105.527C51.6022 105.471 51.6783 105.44 51.7578 105.439L53.9864 105.425C54.0272 105.425 54.0675 105.416 54.105 105.4C54.1425 105.384 54.1764 105.36 54.2048 105.331C54.2332 105.302 54.2554 105.267 54.2703 105.229C54.2852 105.191 54.2924 105.15 54.2915 105.11L54.2641 104.088C54.2632 104.047 54.2543 104.007 54.238 103.97C54.2216 103.933 54.1982 103.9 54.1689 103.872C54.1396 103.844 54.1051 103.822 54.0673 103.807C54.0295 103.792 53.9892 103.785 53.9486 103.786L51.7235 103.817C51.6827 103.817 51.6422 103.81 51.6044 103.794C51.5665 103.779 51.5321 103.757 51.5031 103.728C51.4741 103.699 51.451 103.665 51.4353 103.627C51.4196 103.59 51.4115 103.549 51.4115 103.508L51.4149 100.433C51.4149 100.392 51.4232 100.351 51.4394 100.312C51.4555 100.274 51.4792 100.24 51.5089 100.211C51.5387 100.182 51.5739 100.16 51.6125 100.145C51.6512 100.13 51.6924 100.123 51.7338 100.124L54.3292 100.217C54.4099 100.22 54.4885 100.191 54.5481 100.136C54.6078 100.082 54.6436 100.006 54.6481 99.9256L54.7201 98.7496C54.7224 98.7076 54.7162 98.6657 54.7017 98.6262C54.6872 98.5868 54.6649 98.5507 54.636 98.5202C54.6071 98.4897 54.5723 98.4654 54.5337 98.4489C54.4951 98.4323 54.4535 98.4238 54.4115 98.4239L49.8446 98.4479C49.7634 98.4488 49.6858 98.4817 49.6287 98.5394C49.5715 98.5972 49.5395 98.6752 49.5395 98.7564L49.5429 110.794C49.5429 110.835 49.551 110.875 49.5667 110.913C49.5825 110.951 49.6055 110.985 49.6345 111.014C49.6635 111.042 49.698 111.065 49.7358 111.08C49.7736 111.096 49.8141 111.103 49.8549 111.103L54.4801 111.038C54.5227 111.037 54.5648 111.027 54.6036 111.009C54.6424 110.992 54.677 110.966 54.7054 110.934C54.7338 110.902 54.7552 110.865 54.7683 110.824C54.7815 110.784 54.7861 110.741 54.7818 110.698L54.6755 109.649Z" stroke="#7D9FBD" stroke-width="0.685714"/>
<path d="M57.7853 104.153C57.7807 103.643 57.8687 103.626 58.0493 104.102C58.8333 106.166 59.6595 108.299 60.5281 110.503C60.7178 110.983 61.1898 111.151 61.9441 111.007C62.2001 110.959 62.327 110.804 62.3247 110.544L62.2321 98.8422C62.2313 98.7299 62.1872 98.6225 62.1091 98.5425C62.031 98.4625 61.9251 98.4163 61.8138 98.4136L60.9053 98.393C60.6401 98.3884 60.5064 98.5176 60.5041 98.7804L60.4561 104.674C60.4515 105.358 60.3213 105.382 60.0653 104.746C59.3407 102.943 58.6218 101.095 57.9087 99.2021C57.6093 98.4044 57.0195 98.1759 56.1395 98.5164C56.0435 98.553 55.9955 98.6227 55.9955 98.7256L56.0298 110.76C56.0298 110.902 56.1018 110.979 56.2458 110.993L57.5178 111.103C57.7213 111.121 57.823 111.027 57.823 110.822L57.7853 104.153Z" stroke="#7D9FBD" stroke-width="0.685714"/>
<path d="M64.896 100.07C64.9437 100.067 64.9916 100.074 65.0366 100.09C65.0816 100.106 65.1229 100.132 65.1578 100.164C65.1928 100.197 65.2207 100.236 65.2399 100.28C65.2592 100.324 65.2693 100.371 65.2697 100.419L65.3451 110.664C65.3455 110.71 65.3551 110.756 65.3733 110.799C65.3914 110.841 65.4178 110.88 65.4509 110.913C65.4841 110.945 65.5232 110.971 65.5663 110.988C65.6093 111.005 65.6553 111.014 65.7017 111.014L66.8468 111.01C66.8932 111.01 66.939 111 66.9817 110.982C67.0244 110.964 67.063 110.937 67.0955 110.904C67.128 110.871 67.1536 110.832 67.171 110.789C67.1883 110.746 67.197 110.7 67.1965 110.654L67.1348 100.347C67.1342 100.298 67.1438 100.25 67.163 100.204C67.1822 100.159 67.2107 100.119 67.2465 100.085C67.2823 100.052 67.3247 100.026 67.371 100.01C67.4173 99.9933 67.4665 99.9869 67.5154 99.9907L68.8388 100.104C68.8874 100.108 68.9364 100.102 68.9826 100.087C69.0289 100.071 69.0714 100.046 69.1075 100.013C69.1435 99.9803 69.1724 99.9403 69.1923 99.8957C69.2121 99.8511 69.2225 99.8029 69.2228 99.7541L69.2331 98.7461C69.2336 98.6992 69.2246 98.6526 69.2069 98.6091C69.1891 98.5657 69.1629 98.5262 69.1297 98.493C69.0965 98.4598 69.057 98.4335 69.0135 98.4158C68.97 98.398 68.9235 98.3891 68.8765 98.3896L63.5725 98.4238C63.5256 98.4243 63.4792 98.4341 63.436 98.4527C63.3929 98.4713 63.3539 98.4983 63.3213 98.5321C63.2888 98.5659 63.2633 98.6059 63.2464 98.6498C63.2294 98.6936 63.2214 98.7403 63.2228 98.7873L63.2468 99.7953C63.2481 99.8426 63.2589 99.8891 63.2785 99.9321C63.2981 99.9752 63.3262 100.014 63.3611 100.046C63.3959 100.078 63.4369 100.102 63.4814 100.118C63.526 100.134 63.5733 100.141 63.6205 100.138L64.896 100.07Z" stroke="#7D9FBD" stroke-width="0.685714"/>
<path d="M73.2342 102.171C73.1748 101.81 73.0719 101.804 72.9256 102.154C72.8799 102.271 72.8353 102.477 72.7919 102.775C72.6159 104.032 72.4091 105.273 72.1713 106.498C72.1571 106.57 72.1702 106.646 72.2083 106.709C72.2463 106.772 72.3064 106.819 72.3771 106.841C72.8251 106.978 73.2833 107.017 73.7519 106.957C73.7863 106.953 73.8194 106.941 73.8493 106.924C73.8792 106.906 73.9053 106.883 73.926 106.855C73.9468 106.827 73.9618 106.796 73.9702 106.762C73.9785 106.728 73.9801 106.693 73.9748 106.659L73.2342 102.171Z" stroke="#7D9FBD" stroke-width="0.685714"/>
<path d="M43.7588 100.519V109.118C43.7588 109.226 43.8018 109.33 43.8783 109.406C43.9548 109.483 44.0586 109.526 44.1668 109.526H45.3154C45.4424 109.526 45.5681 109.497 45.6854 109.443C45.8027 109.388 45.9093 109.307 45.9991 109.206C46.0888 109.105 46.1601 108.985 46.2087 108.852C46.2572 108.72 46.2823 108.578 46.2823 108.435V101.201C46.2823 101.058 46.2572 100.916 46.2087 100.784C46.1601 100.651 46.0888 100.531 45.9991 100.43C45.9093 100.329 45.8027 100.248 45.6854 100.194C45.5681 100.139 45.4424 100.111 45.3154 100.111H44.1668C44.0586 100.111 43.9548 100.154 43.8783 100.23C43.8018 100.307 43.7588 100.41 43.7588 100.519Z" stroke="#7D9FBD" stroke-width="0.685714"/>
<path d="M70.7074 6.89143L69.3771 6.67886C68.9817 6.61486 68.7646 6.78286 68.7257 7.18286L68.5371 9.10971C68.5006 9.46857 68.6629 9.66171 69.024 9.68914L70.5429 9.79543C70.5821 9.79804 70.6204 9.80837 70.6556 9.82582C70.6908 9.84328 70.7222 9.86752 70.748 9.89715C70.7738 9.92678 70.7935 9.96121 70.8059 9.99847C70.8184 10.0357 70.8234 10.0751 70.8206 10.1143L70.7726 10.9166C70.7566 11.168 70.6263 11.264 70.3817 11.2046C69.3029 10.944 68.2069 10.8286 67.0937 10.8583C67.0625 10.859 67.0315 10.853 67.0027 10.8407C66.974 10.8284 66.9482 10.8101 66.9271 10.7871C66.906 10.764 66.8901 10.7367 66.8804 10.707C66.8707 10.6773 66.8674 10.6459 66.8709 10.6149L67.2754 6.76457L67.9131 1.50857C67.9474 1.22514 68.1074 1.09714 68.3931 1.12457L71.4137 1.41257C71.8206 1.44914 71.9874 1.66857 71.9143 2.07086L71.8526 2.4C71.8235 2.55871 71.7327 2.6995 71.5998 2.7919C71.467 2.8843 71.3028 2.92088 71.1429 2.89371L69.8469 2.67086C69.7812 2.65969 69.7139 2.66194 69.6491 2.67747C69.5843 2.693 69.5233 2.72148 69.4698 2.7612C69.4163 2.80093 69.3714 2.85107 69.3378 2.9086C69.3042 2.96614 69.2826 3.02989 69.2743 3.096L69.0514 4.82057C69.0034 5.18857 69.1646 5.38629 69.5349 5.41371L70.7486 5.50971C70.8101 5.51353 70.869 5.53627 70.9174 5.57488C70.9658 5.61349 71.0014 5.66612 71.0194 5.72571C71.152 6.15314 71.048 6.54171 70.7074 6.89143Z" fill="#2D366D"/>
<path d="M62.4242 6.77837L62.0676 8.03666C62.0262 8.18408 62.0407 8.34161 62.1084 8.47896C62.1762 8.6163 62.2923 8.72376 62.4344 8.78066L62.9281 8.97608C62.9886 8.99928 63.0394 9.04268 63.0724 9.09928C63.1054 9.15589 63.1186 9.2224 63.1099 9.28808C63.0436 9.74294 62.847 10.1349 62.5202 10.4641C62.4719 10.5136 62.4081 10.545 62.3395 10.5532C62.2708 10.5613 62.2015 10.5456 62.143 10.5087L61.1281 9.88466C61.0551 9.83954 60.9694 9.81977 60.8844 9.82846C60.7994 9.83714 60.7199 9.8738 60.6584 9.93266C58.8927 11.6367 54.8642 11.4069 55.087 8.13951C55.3316 7.25723 55.8196 6.4858 56.551 5.82523C56.5898 5.79007 56.6156 5.74288 56.6243 5.69126C56.633 5.63964 56.6241 5.58659 56.599 5.54066C56.3179 5.04008 55.9853 4.55666 55.9099 4.01494C55.4367 0.617228 61.8722 0.881227 60.5247 4.31323C60.3567 4.74866 59.9144 5.20808 59.6264 5.64351C59.5951 5.69169 59.5768 5.74702 59.5732 5.8041C59.5696 5.86119 59.5808 5.91808 59.6059 5.96923C59.8093 6.37608 60.0904 6.72008 60.4493 7.00123C60.4773 7.02367 60.5109 7.0381 60.5465 7.04298C60.5821 7.04786 60.6184 7.04301 60.6514 7.02895C60.6845 7.01488 60.7131 6.99213 60.7342 6.9631C60.7554 6.93407 60.7683 6.89986 60.7716 6.86408C60.8607 6.01037 62.1636 5.91437 62.4242 6.77837ZM57.7819 4.24466C57.7999 4.33065 57.8405 4.41028 57.8996 4.47533C57.9586 4.54038 58.034 4.58849 58.1178 4.6147C58.2017 4.6409 58.291 4.64426 58.3766 4.62441C58.4622 4.60456 58.541 4.56224 58.6047 4.5018L58.9304 4.19666C59.0144 4.11919 59.069 4.01498 59.0847 3.9018L59.143 3.4458C59.1516 3.38063 59.1471 3.31439 59.1298 3.25098C59.1125 3.18757 59.0827 3.12825 59.0421 3.07652C59.0015 3.02478 58.9511 2.98167 58.8936 2.9497C58.8362 2.91774 58.7729 2.89756 58.7076 2.89037L58.1487 2.82866C58.071 2.81989 57.9923 2.82972 57.9191 2.85733C57.8459 2.88494 57.7803 2.92954 57.7278 2.98747C57.6752 3.04539 57.6372 3.11498 57.6168 3.19049C57.5964 3.266 57.5942 3.34528 57.6104 3.4218L57.7819 4.24466ZM59.4207 8.39323L58.2139 6.99437C58.1754 6.9495 58.1285 6.91265 58.0758 6.88594C58.0231 6.85924 57.9656 6.8432 57.9067 6.83874C57.8478 6.83428 57.7885 6.84149 57.7324 6.85996C57.6763 6.87843 57.6243 6.90779 57.5796 6.94637L57.5281 6.98751C57.3547 7.13724 57.2056 7.31177 57.0895 7.5011C56.9733 7.69043 56.8924 7.89085 56.8513 8.09087C56.8102 8.29089 56.8098 8.48657 56.85 8.66671C56.8903 8.84686 56.9704 9.00791 57.0859 9.14066L57.1339 9.19551C57.2484 9.329 57.396 9.43172 57.5683 9.49777C57.7406 9.56383 57.9343 9.59193 58.1381 9.58046C58.3419 9.569 58.5519 9.51819 58.7562 9.43096C58.9604 9.34372 59.1547 9.22177 59.3281 9.07208L59.3761 9.02751C59.4208 8.98883 59.4573 8.94172 59.4837 8.88889C59.5101 8.83605 59.5259 8.77853 59.53 8.71961C59.5341 8.6607 59.5266 8.60154 59.5079 8.54554C59.4891 8.48953 59.4595 8.43777 59.4207 8.39323Z" fill="#8A414B"/>
<path d="M75.8846 10.5771L75.4149 12.0137C75.3936 12.0815 75.3471 12.1386 75.2847 12.1736C75.2224 12.2086 75.1488 12.2188 75.0789 12.2023C74.2331 12.008 73.3806 11.8103 72.5211 11.6091C71.2217 11.3006 71.7771 9.25714 72.9874 9.29486C73.1657 9.30172 73.2663 9.39314 73.2891 9.56914L73.4194 10.5326C73.456 10.8023 73.6091 10.944 73.8789 10.9577L73.9714 10.9646C74.2457 10.9783 74.4091 10.8503 74.4617 10.5806C74.6469 9.6 73.2206 8.64686 72.648 7.91657C72.6869 7.13943 72.88 6.41714 73.2274 5.74971C73.2795 5.6489 73.3639 5.56845 73.467 5.52121C73.5702 5.47398 73.6862 5.46269 73.7966 5.48914L76.4949 6.11657C76.5609 6.13221 76.6232 6.16086 76.678 6.20084C76.7329 6.24083 76.7792 6.29134 76.8144 6.34944C76.8495 6.40753 76.8727 6.47205 76.8825 6.5392C76.8924 6.60636 76.8889 6.67482 76.872 6.74057L76.488 8.20114C76.4748 8.25045 76.4447 8.29369 76.4029 8.32365C76.3611 8.35361 76.31 8.36845 76.2583 8.36571C74.7497 8.27314 75.7577 6.69257 74.5303 6.69257C74.4183 6.69257 74.3371 6.74171 74.2869 6.84C73.8309 7.72114 75.1063 8.69829 75.7749 9.29143C75.864 9.36914 75.92 9.46514 75.9429 9.57943C76.0069 9.89714 75.9874 10.2297 75.8846 10.5771Z" fill="#2D366D"/>
<path d="M42.8457 6.1973C42.6457 6.62221 42.7559 7.09477 43.0917 7.25279C43.4275 7.41081 43.8618 7.19446 44.0618 6.76955C44.2617 6.34465 44.1516 5.87209 43.8158 5.71407C43.4799 5.55605 43.0456 5.7724 42.8457 6.1973Z" fill="#205D9B"/>
<path d="M50.8147 8.76005L51.6307 11.7841C51.64 11.8196 51.6413 11.8567 51.6346 11.8928C51.6279 11.9288 51.6134 11.9629 51.592 11.9924C51.5707 12.022 51.5431 12.0463 51.5112 12.0637C51.4794 12.081 51.4441 12.0909 51.4079 12.0926C50.4067 12.1315 49.4582 12.4069 48.5622 12.9189C48.1347 12.9852 47.8422 12.7921 47.6844 12.3395C47.4444 11.6561 47.2296 10.8675 47.0399 9.97377C46.9439 9.5212 47.1222 9.24691 47.5747 9.15091L49.0867 8.83205C49.1391 8.82051 49.1853 8.7899 49.2164 8.74618C49.2474 8.70245 49.2611 8.64873 49.2547 8.59548L49.1553 7.83434C49.1408 7.72377 49.0928 7.6203 49.0177 7.53787C48.9426 7.45544 48.8441 7.39802 48.7353 7.37336C48.6266 7.34869 48.5129 7.35797 48.4096 7.39994C48.3063 7.4419 48.2183 7.51454 48.1576 7.60805C47.9107 7.99205 47.8559 8.61262 47.4822 8.84234C47.1873 9.0252 46.9279 8.94062 46.7039 8.58862C45.5279 6.74405 48.5279 6.44234 49.5016 6.18862C49.817 6.10862 50.0227 6.22405 50.1187 6.53491L50.8147 8.76005ZM49.2813 11.6421C49.4666 11.6324 49.6389 11.5214 49.7604 11.3335C49.8819 11.1455 49.9426 10.8961 49.9292 10.64C49.9158 10.3839 49.8293 10.1422 49.6888 9.96801C49.5484 9.79381 49.3654 9.70139 49.1801 9.7111C48.9949 9.72081 48.8226 9.83185 48.7011 10.0198C48.5796 10.2077 48.5188 10.4572 48.5323 10.7132C48.5457 10.9693 48.6321 11.211 48.7726 11.3852C48.9131 11.5594 49.0961 11.6519 49.2813 11.6421Z" fill="#205D9B"/>
<path d="M81.3429 11.2526C81.144 11.8491 80.7291 13.0629 80.1154 13.5634C80.024 13.6366 79.92 13.672 79.8034 13.6697C79.1451 13.6606 78.5257 13.5051 77.9451 13.2034C77.9141 13.1875 77.8801 13.1781 77.8452 13.1759C77.8104 13.1736 77.7754 13.1786 77.7426 13.1906C77.7098 13.2025 77.6798 13.221 77.6544 13.2451C77.6291 13.2691 77.609 13.2981 77.5954 13.3303L76.944 14.88C76.9181 14.9424 76.8794 14.9988 76.8305 15.0455C76.7815 15.0922 76.7233 15.1283 76.6596 15.1515C76.5958 15.1746 76.5279 15.1844 76.46 15.1802C76.3921 15.176 76.3258 15.1578 76.2651 15.1269L75.9669 14.976C75.6354 14.8046 75.5349 14.544 75.6651 14.1943L76.8789 10.9029L78.3737 7.128C78.406 7.04625 78.4576 6.97353 78.524 6.91602C78.5905 6.85851 78.6699 6.81792 78.7554 6.79771C78.841 6.77751 78.9301 6.77828 79.0153 6.79997C79.1005 6.82166 79.1791 6.86363 79.2446 6.92229C79.8114 7.42971 80.568 7.72114 81.5143 7.79657C82.1589 7.84914 82.3657 8.224 82.1349 8.92114C81.8811 9.68914 81.6171 10.4663 81.3429 11.2526ZM80.4551 9.20386C80.5083 9.06455 80.504 8.90981 80.4431 8.77368C80.3822 8.63756 80.2697 8.5312 80.1304 8.478L80.0919 8.46333C79.9526 8.41013 79.7979 8.41445 79.6618 8.47534C79.5256 8.53623 79.4193 8.6487 79.3661 8.78801L78.2946 11.5939C78.2414 11.7332 78.2458 11.8879 78.3067 12.024C78.3675 12.1602 78.48 12.2665 78.6193 12.3197L78.6578 12.3344C78.7971 12.3876 78.9518 12.3833 79.0879 12.3224C79.2241 12.2615 79.3304 12.149 79.3836 12.0097L80.4551 9.20386Z" fill="#2D366D"/>
<path d="M45.3324 13.344L44.5816 11.2628L43.673 8.74284C43.5153 8.30856 43.6513 8.0057 44.081 7.83427L44.273 7.75541C44.3277 7.73396 44.386 7.7236 44.4447 7.72495C44.5034 7.7263 44.5613 7.73932 44.6149 7.76325C44.6685 7.78719 44.7168 7.82156 44.757 7.86436C44.7972 7.90717 44.8285 7.95754 44.849 8.01256L46.7039 12.9977C46.734 13.0786 46.7469 13.165 46.7416 13.2513C46.7363 13.3375 46.7129 13.4216 46.673 13.4983C46.3781 14.0674 45.5896 14.0057 45.3324 13.344Z" fill="#205D9B"/>
<path d="M86.4583 12.7954L85.9063 13.4537C85.8171 13.5589 85.712 13.5829 85.5909 13.5257L83.8251 12.7131C83.7751 12.6902 83.719 12.6834 83.6649 12.6939C83.6108 12.7043 83.5613 12.7314 83.5234 12.7714C83.2446 13.0709 83.0709 13.4194 83.0023 13.8171C82.9777 13.9537 83.0029 14.0946 83.0734 14.2141C83.1438 14.3337 83.2549 14.424 83.3863 14.4686C83.7566 14.592 84.008 14.4891 84.1406 14.16C84.1808 14.0622 84.2526 13.9807 84.3446 13.9285C84.4366 13.8763 84.5434 13.8564 84.648 13.872L85.2754 13.968C85.3207 13.9751 85.3639 13.992 85.402 14.0175C85.4401 14.043 85.4722 14.0765 85.496 14.1157C85.5198 14.1548 85.5348 14.1987 85.5399 14.2443C85.5451 14.2898 85.5402 14.3359 85.5257 14.3794C85.0914 15.7051 84.6206 16.2389 84.1131 15.9806C83.288 15.5623 82.4743 15.1726 81.672 14.8114C81.5871 14.7732 81.5107 14.7182 81.4475 14.6498C81.3843 14.5813 81.3356 14.5009 81.3042 14.4132C81.2729 14.3255 81.2595 14.2323 81.265 14.1393C81.2704 14.0464 81.2946 13.9554 81.336 13.872L82.2926 11.9417L83.5166 9.46971C83.5609 9.37985 83.6226 9.29967 83.6982 9.23377C83.7738 9.16787 83.8617 9.11755 83.957 9.0857C84.0522 9.05384 84.1529 9.04108 84.2532 9.04814C84.3536 9.05521 84.4516 9.08196 84.5417 9.12686L86.8423 10.2754C86.9962 10.3527 87.1149 10.4855 87.1742 10.6467C87.2335 10.808 87.2288 10.9854 87.1611 11.1429L86.4583 12.7954ZM84.6554 12.113C84.7386 12.1378 84.8272 12.1419 84.916 12.1251C85.0048 12.1082 85.0921 12.0707 85.1729 12.0148C85.2537 11.9588 85.3265 11.8854 85.387 11.7988C85.4475 11.7123 85.4946 11.6142 85.5256 11.5102C85.5566 11.4062 85.5709 11.2983 85.5676 11.1928C85.5644 11.0872 85.5437 10.986 85.5068 10.8949C85.4698 10.8038 85.4173 10.7246 85.3522 10.6619C85.2871 10.5992 85.2108 10.5541 85.1275 10.5293C85.0442 10.5045 84.9556 10.5004 84.8668 10.5172C84.778 10.5341 84.6907 10.5716 84.6099 10.6275C84.5291 10.6835 84.4564 10.7569 84.3959 10.8434C84.3354 10.93 84.2883 11.0281 84.2573 11.1321C84.2263 11.2361 84.212 11.3439 84.2152 11.4495C84.2184 11.5551 84.2391 11.6563 84.2761 11.7474C84.3131 11.8385 84.3656 11.9177 84.4307 11.9804C84.4957 12.0431 84.5721 12.0882 84.6554 12.113Z" fill="#2D366D"/>
<path d="M42.7473 11.0263C41.9862 11.5097 41.7016 11.1052 41.3348 10.4983C41.3019 10.444 41.2514 10.4027 41.192 10.3815C41.1326 10.3602 41.068 10.3603 41.0091 10.3817C40.5771 10.528 40.3896 10.8115 40.4468 11.232C40.5336 11.8743 41.0136 12.9109 41.8868 14.3417C41.9099 14.3805 41.9425 14.4128 41.9814 14.4356C42.0204 14.4583 42.0645 14.4709 42.1096 14.472C42.3428 14.4789 42.5199 14.4115 42.6411 14.2697C42.7462 14.144 42.7782 13.9383 42.7371 13.6526C42.6479 13.0115 42.6479 12.408 43.4433 12.3017C43.5736 12.2857 43.6788 12.3303 43.7588 12.4355C44.1313 12.936 44.3519 13.496 44.4205 14.1155C44.4342 14.2389 44.3988 14.3463 44.3142 14.4377C43.6559 15.1646 42.4079 15.4286 41.5439 15.8057C41.4141 15.8616 41.2676 15.8646 41.1357 15.814C41.0037 15.7634 40.8968 15.6632 40.8376 15.5349L39.5931 12.8469C39.3051 12.1097 38.3862 10.7075 39.3873 10.1726C40.0936 9.79775 40.7976 9.45489 41.4993 9.14403C41.6431 9.08009 41.804 9.06525 41.957 9.10181C42.1101 9.13837 42.2468 9.22429 42.3462 9.34632C42.8056 9.91089 42.9393 10.4709 42.7473 11.0263Z" fill="#205D9B"/>
<path d="M38.8287 14.1051L39.9395 16.1622C40.1727 16.5942 40.0664 16.9097 39.6207 17.1085L39.4801 17.1737C39.3365 17.2382 39.1737 17.2458 39.0243 17.1949C38.8749 17.144 38.7499 17.0385 38.6744 16.8994L36.7372 13.3439C36.7073 13.2891 36.6661 13.2412 36.6162 13.2034C36.5664 13.1655 36.5091 13.1386 36.4479 13.1244C36.3868 13.1102 36.3233 13.1089 36.2615 13.1208C36.1997 13.1326 36.141 13.1572 36.0892 13.1931L35.9384 13.2959C35.7937 13.396 35.692 13.5469 35.6532 13.719C35.6145 13.891 35.6416 14.0716 35.7292 14.2251L37.6149 17.4925C37.6879 17.6195 37.7151 17.7676 37.692 17.9118C37.6689 18.056 37.5969 18.1876 37.4881 18.2845L37.1727 18.5622C36.8961 18.8114 36.6675 18.7725 36.4869 18.4457L33.6961 13.4022L33.9498 13.1999C34.0344 13.1337 34.1292 13.0868 34.2344 13.0594C35.1578 12.8194 35.9555 12.3577 36.6275 11.6742C36.6759 11.6257 36.7345 11.5887 36.799 11.5658C36.8635 11.5429 36.9323 11.5348 37.0001 11.542C37.068 11.5493 37.1332 11.5717 37.191 11.6076C37.2487 11.6436 37.2976 11.6921 37.3338 11.7497L38.8287 14.1051Z" fill="#205D9B"/>
<path d="M89.5784 17.8732C89.391 18.2092 89.1533 18.4972 88.8653 18.7372C88.8277 18.7687 88.7813 18.7875 88.7331 18.7905C88.6848 18.7936 88.6374 18.7809 88.5979 18.7544L86.0984 17.1155C85.9348 17.0085 85.8197 16.8417 85.778 16.6511C85.7363 16.4605 85.7713 16.2616 85.8756 16.0972L87.9601 12.8058C88.2756 12.2709 88.6596 11.3418 89.4379 11.8629C90.215 12.3864 91.0104 12.8778 91.8241 13.3372C91.8763 13.3665 91.9174 13.412 91.941 13.4665C91.9645 13.5211 91.9693 13.5817 91.9544 13.6389C91.8013 14.2492 91.535 14.8081 91.1556 15.3155C91.1198 15.3628 91.0712 15.3988 91.0153 15.4194C90.9594 15.4401 90.8987 15.4445 90.8401 15.4321C89.8733 15.2264 90.0961 14.4241 90.0927 13.7109C90.0928 13.6606 90.0818 13.6108 90.0604 13.5652C90.0391 13.5195 90.008 13.4792 89.9693 13.4469C89.6767 13.1955 89.4036 13.2309 89.1499 13.5532C88.759 14.0469 88.2299 14.9635 87.5624 16.3029C87.5121 16.4058 87.5076 16.5098 87.5487 16.6149C87.647 16.8549 87.8196 17.0172 88.0664 17.1018C88.125 17.1208 88.1882 17.1215 88.2475 17.1038C88.3069 17.086 88.3597 17.0507 88.399 17.0024L88.8173 16.4744C88.8527 16.4294 88.8975 16.3929 88.9485 16.3674C88.9995 16.3419 89.0554 16.3281 89.1121 16.3269C89.4139 16.3224 89.6653 16.4321 89.8664 16.6561C89.951 16.7498 89.9807 16.8584 89.9556 16.9818C89.887 17.3155 89.7613 17.6127 89.5784 17.8732Z" fill="#2D366D"/>
<path d="M94.3502 13.4154C94.1326 13.8315 94.265 14.3303 94.646 14.5295C95.0269 14.7286 95.5121 14.5527 95.7296 14.1365C95.9472 13.7203 95.8148 13.2215 95.4338 13.0224C95.0529 12.8233 94.5677 12.9992 94.3502 13.4154Z" fill="#2D366D"/>
<path d="M91.8 19.1657L91.0286 20.1943C90.7566 20.56 90.4754 20.5669 90.1851 20.2149C89.7874 19.7303 89.8571 19.1931 90.3943 18.6034L93.216 14.9657C93.4331 14.6846 93.672 14.664 93.9326 14.904L94.1588 15.1131C94.4377 15.3691 94.4628 15.648 94.2343 15.9497L91.8 19.1657Z" fill="#2D366D"/>
<path d="M33.1919 21.5691C33.0508 21.6788 32.872 21.7282 32.6946 21.7063C32.5173 21.6845 32.3558 21.5932 32.2456 21.4526L29.5473 17.9863C29.4619 17.8769 29.4001 17.7508 29.3654 17.6152C29.3307 17.4796 29.3238 17.3372 29.3452 17.1962C29.3665 17.0551 29.4156 16.9181 29.4897 16.7931C29.5638 16.668 29.6614 16.5574 29.777 16.4674L31.2821 15.2983C31.515 15.1173 31.8064 15.0312 32.0923 15.0588C32.3783 15.0864 32.6356 15.2256 32.8079 15.4457L35.5061 18.912C35.6158 19.053 35.6652 19.2318 35.6433 19.4092C35.6215 19.5866 35.5302 19.748 35.3896 19.8583L33.1919 21.5691ZM32.0883 16.8307C32.0411 16.7687 31.9821 16.7167 31.9148 16.6775C31.8475 16.6383 31.7731 16.6128 31.6959 16.6023C31.6187 16.5919 31.5402 16.5968 31.4649 16.6167C31.3896 16.6366 31.3189 16.6711 31.257 16.7183L31.2024 16.7599C31.0773 16.8552 30.9952 16.9963 30.9741 17.1522C30.953 17.3081 30.9947 17.466 31.09 17.5911L32.7937 19.8275C32.8409 19.8895 32.8999 19.9416 32.9672 19.9808C33.0345 20.0199 33.1089 20.0455 33.1861 20.0559C33.2633 20.0663 33.3418 20.0615 33.4171 20.0416C33.4924 20.0217 33.5631 19.9871 33.625 19.9399L33.6796 19.8984C33.8047 19.8031 33.8868 19.6619 33.9079 19.506C33.929 19.3501 33.8873 19.1923 33.792 19.0671L32.0883 16.8307Z" fill="#205D9B"/>
<path d="M26.5679 17.0639L31.529 22.2719C31.5891 22.335 31.6349 22.4103 31.6631 22.4927C31.6913 22.5751 31.7014 22.6626 31.6926 22.7492C31.6838 22.8359 31.6564 22.9196 31.6121 22.9946C31.5679 23.0697 31.508 23.1343 31.4364 23.1839C30.6616 23.7211 30.017 24.3794 29.5027 25.1588C29.4674 25.2122 29.4167 25.2536 29.3573 25.2775C29.2979 25.3014 29.2326 25.3066 29.1702 25.2925C28.1896 25.0696 26.7496 23.3005 26.0947 22.5428C25.6079 22.1428 25.3199 21.6799 25.2307 21.1542C25.2232 21.1069 25.226 21.0582 25.239 21.0115C25.252 20.9648 25.2749 20.9211 25.3062 20.8834L26.4547 19.5531C26.5279 19.4674 26.5668 19.3577 26.5636 19.2454C26.5604 19.1332 26.5155 19.0265 26.4376 18.9462L24.9324 17.3931C24.8019 17.2589 24.7239 17.0823 24.7126 16.8954C24.7013 16.7085 24.7574 16.5238 24.8707 16.3748L25.0079 16.1931C25.0501 16.1376 25.1039 16.092 25.1656 16.0595C25.2273 16.0271 25.2954 16.0086 25.365 16.0053C25.4346 16.0021 25.5042 16.0141 25.5686 16.0406C25.6331 16.0671 25.691 16.1075 25.7382 16.1588L26.5679 17.0639ZM28.9267 23.5062C28.9753 23.5588 29.0355 23.5991 29.1026 23.6241C29.1696 23.6491 29.2416 23.6579 29.3127 23.6499C29.3838 23.6419 29.452 23.6172 29.5118 23.578C29.5716 23.5387 29.6214 23.486 29.657 23.4239L29.9039 22.9919C29.9533 22.906 29.9733 22.8062 29.9609 22.7079C29.9485 22.6095 29.9044 22.5179 29.8353 22.4468L27.7679 20.3382C27.7193 20.2884 27.6599 20.2503 27.5943 20.227C27.5287 20.2036 27.4586 20.1956 27.3894 20.2036C27.3202 20.2115 27.2538 20.2352 27.1952 20.2728C27.1366 20.3104 27.0874 20.3609 27.0513 20.4205L26.849 20.7531C26.7974 20.8373 26.7745 20.9359 26.7838 21.0342C26.7931 21.1325 26.834 21.2252 26.9004 21.2982L28.9267 23.5062Z" fill="#205D9B"/>
<path d="M96.7817 21.4149L94.8069 23.5783C94.7549 23.6352 94.6903 23.6791 94.6183 23.7063C94.5463 23.7336 94.469 23.7434 94.3927 23.735C94.3164 23.7267 94.2433 23.7003 94.1794 23.6582C94.1155 23.616 94.0626 23.5593 94.0251 23.4926C93.5657 22.6743 92.9109 22.0651 92.0606 21.6651C92.0107 21.6425 91.9678 21.6066 91.9365 21.5614C91.9051 21.5162 91.8864 21.4632 91.8823 21.408C91.8571 21.0286 92.0103 20.6583 92.3417 20.2971C92.928 19.56 93.4526 18.7406 94.3954 18.4389C94.4545 18.4206 94.509 18.3897 94.5552 18.3483C94.6013 18.3069 94.6381 18.2559 94.6629 18.1989C94.8731 17.7189 95.1703 17.3006 95.5543 16.944C95.6542 16.8506 95.7858 16.7985 95.923 16.7978C96.0602 16.7972 96.1929 16.8482 96.2949 16.9406L98.3006 18.768C98.3673 18.8291 98.4214 18.9028 98.4596 18.9848C98.4978 19.0667 98.5194 19.1554 98.5233 19.2456C98.5271 19.3358 98.513 19.4258 98.4819 19.5103C98.4507 19.5949 98.4031 19.6724 98.3417 19.7383L96.7817 21.4149ZM96.3634 18.3017C96.3395 18.2748 96.3077 18.2564 96.2725 18.249C96.2373 18.2415 96.2007 18.2456 96.168 18.2606L95.0743 18.7611C95.0498 18.7725 95.0285 18.7897 95.012 18.8111C94.9956 18.8325 94.9846 18.8575 94.9799 18.8841C94.9751 18.9107 94.9769 18.938 94.985 18.9637C94.9931 18.9895 95.0072 19.0129 95.0263 19.032L95.9794 19.992C95.9959 20.0084 96.0155 20.0212 96.0371 20.0296C96.0588 20.0381 96.0819 20.0419 96.1051 20.041C96.1283 20.04 96.1511 20.0342 96.1719 20.024C96.1928 20.0138 96.2113 19.9994 96.2263 19.9817L96.9223 19.152C96.9481 19.1211 96.962 19.0819 96.9613 19.0416C96.9607 19.0014 96.9456 18.9627 96.9189 18.9326L96.3634 18.3017ZM95.1171 21.1879C95.2156 21.07 95.2633 20.9178 95.2497 20.7648C95.236 20.6117 95.1621 20.4703 95.0443 20.3717L94.897 20.2486C94.8386 20.1998 94.7712 20.1629 94.6986 20.1402C94.6259 20.1174 94.5496 20.1092 94.4738 20.116C94.398 20.1227 94.3243 20.1443 94.2568 20.1796C94.1894 20.2149 94.1296 20.263 94.0808 20.3214L93.6189 20.8738C93.5204 20.9917 93.4727 21.1439 93.4863 21.297C93.5 21.45 93.5739 21.5914 93.6918 21.69L93.839 21.8131C93.8974 21.8619 93.9648 21.8988 94.0374 21.9215C94.1101 21.9443 94.1864 21.9525 94.2622 21.9458C94.338 21.939 94.4117 21.9174 94.4792 21.8821C94.5466 21.8469 94.6064 21.7987 94.6552 21.7403L95.1171 21.1879Z" fill="#2D366D"/>
<path d="M98.0914 23.7943L96.5829 25.3406C96.368 25.56 96.1463 25.568 95.9177 25.3646L95.5063 25.0011C95.4614 24.9614 95.425 24.9129 95.3994 24.8586C95.3737 24.8042 95.3593 24.7452 95.3571 24.685C95.3549 24.6248 95.3648 24.5647 95.3863 24.5083C95.4078 24.4518 95.4405 24.4002 95.4823 24.3566L97.1829 22.5909L101.832 18.0309C101.931 17.9344 102.063 17.8806 102.201 17.8813C102.339 17.8819 102.471 17.9369 102.569 18.0343L102.686 18.1509C103.067 18.5371 103.064 18.92 102.675 19.2994L98.0914 23.7943Z" fill="#2D366D"/>
<path d="M104.16 21.3497C104.43 21.7109 104.366 22.104 103.968 22.5291C103.477 22.904 103.122 22.9177 102.905 22.5703C102.267 21.5451 103.169 20.7291 104.16 21.3497Z" fill="#2D366D"/>
<path d="M88.1863 45.0651C88.2 50.88 87.4891 56.5931 86.0537 62.2046C85.7109 63.5531 85.3669 64.9017 85.0217 66.2503C82.7246 73.1646 79.728 79.7703 76.032 86.0674C74.448 88.7646 72.8377 91.4411 71.2011 94.0971C71.1851 94.1223 71.1634 94.128 71.136 94.1143L71.0606 94.0731C70.9874 94.0343 70.968 93.9771 71.0023 93.9017C74.7394 85.7829 77.4629 77.336 79.1726 68.5611C79.1819 68.5116 79.1768 68.4604 79.1579 68.4136C79.139 68.3668 79.1071 68.3264 79.066 68.2972C79.0249 68.268 78.9763 68.2512 78.9259 68.2487C78.8755 68.2463 78.8255 68.2583 78.7817 68.2834C73.12 71.6274 66.9783 72.3383 60.3566 70.416C60.944 70.0571 61.9383 69.6731 63.3394 69.264C64.4846 68.9326 66.9017 67.8091 70.5909 65.8937C70.76 65.8069 71.2309 65.5257 72.0034 65.0503C72.5177 64.7349 73.0194 64.5029 73.5086 64.3543L79.608 63.9806C79.6949 63.975 79.7773 63.9395 79.841 63.8802C79.9048 63.8208 79.946 63.7412 79.9577 63.6549L80.4754 59.7257C81.0103 59.3554 81.5577 58.9874 82.1177 58.6217C83.2869 57.8606 84.3394 56.7326 85.6971 56.0297C86.1257 55.8103 86.9211 55.2857 86.8594 54.7063C86.8561 54.6749 86.8445 54.645 86.8258 54.6196C86.8071 54.5942 86.782 54.5742 86.7531 54.5617C86.7242 54.5491 86.6924 54.5445 86.6611 54.5482C86.6298 54.5519 86.6 54.5639 86.5749 54.5829C85.7657 55.2069 85.0251 55.7383 84.048 56.1463C83.2423 56.4857 82.4023 56.9074 81.552 57.1166C81.2343 57.192 80.9189 57.2754 80.6057 57.3669C81.0377 53.8309 81.1703 50.5314 81.0034 47.4686C81.2229 46.3143 81.2194 45.5634 80.9931 45.216C81.0206 38.3589 76.3714 34.2171 69.5966 34.9577C67.7177 35.0491 66.0034 35.3669 64.4537 35.9109C63.0069 36.416 61.5909 36.9154 60.2057 37.4091C53.1257 40.5634 46.6114 44.5954 39.9634 48.9669C39.8514 49.04 39.7714 49.1886 39.7234 49.4126C39.7943 49.5931 39.5771 49.6869 39.072 49.6937C38.1326 49.704 36.2469 51.0069 35.4343 51.5451C35.3429 51.6069 35.2983 51.5829 35.3006 51.4731C35.3029 51.2971 35.3806 51.1269 35.5337 50.9623C37.1703 49.2046 38.7074 47.4434 40.1451 45.6789C40.76 45.1371 41.5326 44.3509 42.4629 43.32C43.976 41.64 46.8583 38.8297 51.1097 34.8891C52.5611 33.7669 54.1017 32.5646 55.7314 31.2823C56.8766 30.3806 58.1074 29.6229 59.3246 28.8309C59.3931 28.7851 59.48 28.6629 59.5851 28.464C59.6743 28.4137 59.7691 28.3863 59.8697 28.3817C59.9775 28.3772 60.0814 28.3453 60.1714 28.2891C67.4366 23.76 74.9794 21.5177 83.5577 21.9977C83.6629 22.0046 83.7337 22.0571 83.7703 22.1554C86.568 29.6709 87.8126 37.1486 88.1863 45.0651Z" fill="#2D366D"/>
<path d="M102.452 23.3829C102.32 23.7189 102.06 24.0457 101.674 24.3634C99.7542 25.9337 98.5473 26.9086 98.0536 27.288C97.7336 27.5349 97.4867 27.4766 97.313 27.1131L97.1896 26.8526C97.1191 26.7069 97.0997 26.5418 97.1345 26.3838C97.1694 26.2258 97.2564 26.0842 97.3816 25.9817L98.6947 24.8949L101.304 22.6937C101.383 22.6265 101.48 22.5823 101.582 22.566C101.685 22.5497 101.79 22.5618 101.887 22.6011C102.193 22.7269 102.382 22.9874 102.452 23.3829Z" fill="#2D366D"/>
<path d="M25.6182 23.9348L27.953 26.0263C28.0519 26.1144 28.1131 26.2371 28.124 26.3686C28.1349 26.5002 28.0945 26.6306 28.0113 26.7325L26.1873 28.9885C26.1359 29.053 26.0721 29.1066 25.9997 29.1462C25.9273 29.1858 25.8476 29.2106 25.7654 29.2192C25.6831 29.2279 25.5999 29.2201 25.5205 29.1964C25.4411 29.1727 25.3671 29.1335 25.3028 29.0811C24.1439 28.128 22.9828 27.1325 21.8193 26.0948C21.017 25.3817 22.1313 24.2708 22.8033 23.5885L23.3896 22.968C23.5143 22.8372 23.6836 22.7581 23.8636 22.7467C24.0435 22.7353 24.2208 22.7922 24.3599 22.9062L25.6182 23.9348ZM25.577 27.4491C25.6325 27.4954 25.6989 27.5269 25.7699 27.5404C25.8409 27.5539 25.9141 27.5492 25.9828 27.5265C26.0514 27.5039 26.1131 27.4641 26.1621 27.411C26.2111 27.3578 26.2457 27.2931 26.2628 27.2228L26.3793 26.7463C26.3979 26.6705 26.3952 26.591 26.3716 26.5166C26.3481 26.4422 26.3045 26.3758 26.2456 26.3245L23.9759 24.3325C23.9277 24.2898 23.8703 24.2585 23.8083 24.2412C23.7462 24.2238 23.681 24.2208 23.6176 24.2324C23.5541 24.2439 23.4942 24.2697 23.4422 24.3079C23.3903 24.346 23.3476 24.3955 23.3176 24.4525L23.0673 24.9257C23.0222 25.0121 23.0082 25.1113 23.0276 25.2068C23.0469 25.3023 23.0985 25.3882 23.1736 25.4503L25.577 27.4491Z" fill="#205D9B"/>
<path d="M59.585 28.464C59.4799 28.6628 59.393 28.7851 59.3244 28.8308C58.1073 29.6228 56.8764 30.3805 55.7313 31.2822C54.1016 32.5645 52.561 33.7668 51.1096 34.8891C47.9096 34.4434 45.3164 35.2697 43.3301 37.368C41.3519 39.4559 40.5119 42.8194 40.145 45.6788C38.7073 47.4434 37.1701 49.2045 35.5336 50.9622C35.3804 51.1268 35.3027 51.2971 35.3004 51.4731C35.2981 51.5828 35.3427 51.6068 35.4341 51.5451C36.2467 51.0068 38.1324 49.704 39.0719 49.6937C39.577 49.6868 39.7941 49.5931 39.7233 49.4125L39.9393 52.7725C39.0319 52.464 38.3633 52.5611 37.9336 53.064C37.8353 53.176 37.7233 53.192 37.5976 53.112C37.5564 53.0868 37.5096 53.0811 37.457 53.0948C37.3816 53.1177 37.2993 53.1657 37.2101 53.2388L36.5244 53.8114C36.5079 53.8238 36.4875 53.8298 36.4669 53.8283C36.4463 53.8268 36.427 53.818 36.4124 53.8034C36.3978 53.7888 36.389 53.7695 36.3875 53.7489C36.386 53.7283 36.3921 53.7079 36.4044 53.6914C36.7176 53.3188 36.9233 53.0994 37.0216 53.0331C37.0353 53.0239 37.0341 53.0194 37.0181 53.0194C36.9953 53.0194 36.9667 53.0137 36.9324 53.0022C36.8981 52.9908 36.8661 52.9954 36.8364 53.016L35.009 54.3737C34.9404 54.4262 34.9027 54.496 34.8959 54.5828C34.873 54.8754 34.721 55.0548 34.4399 55.1211C34.337 55.1462 34.2696 55.1062 34.2376 55.0011C34.1873 54.832 34.1107 54.6742 34.0079 54.5279C33.4341 50.6217 33.2307 46.6891 33.3976 42.7302C33.4296 41.9714 33.4444 41.2228 33.4421 40.4845C33.8604 34.6948 34.9347 28.9771 36.665 23.3314C36.7564 23.0342 36.9564 22.872 37.265 22.8445C44.8353 22.128 52.6044 24.2434 59.1496 28.104C59.3073 28.1977 59.4524 28.3177 59.585 28.464Z" fill="#205D9B"/>
<path d="M105.261 26.5782L107.537 24.8743C107.83 24.6571 108.062 24.7097 108.233 25.032L108.34 25.2274C108.575 25.6708 108.49 26.0411 108.086 26.3383L100.992 31.5771C100.965 31.5967 100.935 31.6102 100.902 31.6169C100.87 31.6235 100.837 31.6231 100.804 31.6156C100.772 31.6081 100.742 31.5938 100.716 31.5735C100.69 31.5532 100.668 31.5276 100.653 31.4983C100.214 30.6297 99.6596 29.8343 98.9899 29.112C98.9015 29.0173 98.834 28.9051 98.7918 28.7826C98.7497 28.6601 98.7337 28.53 98.745 28.4007C98.7564 28.2715 98.7947 28.1459 98.8575 28.0322C98.9203 27.9185 99.0063 27.8191 99.1099 27.7405L102.751 24.9977C102.838 24.9322 102.937 24.8845 103.042 24.8574C103.147 24.8302 103.257 24.8241 103.365 24.8394C103.472 24.8547 103.576 24.8911 103.669 24.9465C103.763 25.0019 103.845 25.0752 103.91 25.1623L104.942 26.5337C105.033 26.6548 105.14 26.6697 105.261 26.5782ZM100.762 28.3474C100.679 28.4119 100.622 28.5045 100.601 28.608L100.495 29.136C100.478 29.2222 100.487 29.3115 100.522 29.3923C100.556 29.4732 100.614 29.5416 100.689 29.5887C100.763 29.6358 100.85 29.6594 100.937 29.6563C101.025 29.6532 101.11 29.6236 101.181 29.5714L103.718 27.7028C103.794 27.647 103.85 27.568 103.877 27.4777C103.904 27.3874 103.901 27.2908 103.869 27.2022L103.718 26.784C103.694 26.7199 103.655 26.6623 103.605 26.6159C103.555 26.5695 103.495 26.5356 103.429 26.5169C103.363 26.4982 103.294 26.4952 103.227 26.5083C103.16 26.5213 103.096 26.55 103.042 26.592L100.762 28.3474Z" fill="#2D366D"/>
<path d="M18.9394 29.2149C18.7714 28.5394 17.928 27.8229 18 27.2606C18.048 26.8834 18.2514 26.7017 18.6103 26.7154C18.9806 26.7291 19.2926 26.9726 19.6354 27.1783C19.6863 27.2095 19.7446 27.2265 19.8042 27.2277C19.8639 27.2289 19.9228 27.2142 19.9749 27.1851C20.2537 27.0297 20.552 26.9509 20.8697 26.9486C20.8962 26.9481 20.9226 26.9531 20.9472 26.9633C20.9717 26.9735 20.994 26.9887 21.0126 27.0079C21.0312 27.0272 21.0458 27.0501 21.0554 27.0752C21.065 27.1004 21.0695 27.1273 21.0686 27.1543C21.0103 28.7931 22.512 29.3451 23.6023 30.1166C23.6638 30.1598 23.7391 30.1788 23.8138 30.17C23.8884 30.1611 23.9572 30.125 24.0069 30.0686C24.2057 29.8423 24.4606 29.7291 24.7714 29.7291C24.8585 29.7285 24.944 29.7519 25.0185 29.797C25.093 29.8421 25.1536 29.907 25.1936 29.9846C25.2336 30.0622 25.2516 30.1495 25.2455 30.2369C25.2393 30.3243 25.2094 30.4084 25.1589 30.48L24.4731 31.44C24.1646 31.8697 23.7954 31.9314 23.3657 31.6251C22.4057 30.9394 20.712 29.352 19.5326 29.5886C19.4046 29.6146 19.2716 29.5902 19.1611 29.5206C19.0506 29.451 18.9712 29.3415 18.9394 29.2149Z" fill="#205D9B"/>
<path d="M106.09 32.928C107.369 32.7634 107.194 30.8709 106.07 31.5189C106.022 31.5467 105.968 31.5605 105.913 31.5587C105.858 31.5569 105.804 31.5395 105.758 31.5086C105.525 31.3509 105.383 31.1326 105.333 30.8537C105.312 30.7349 105.342 30.6309 105.422 30.5417C105.792 30.1371 106.242 29.8709 106.773 29.7429C106.834 29.7284 106.898 29.7343 106.955 29.7597C107.012 29.7851 107.059 29.8286 107.088 29.8834L108.442 32.4103C108.492 32.5027 108.523 32.6041 108.533 32.7085C108.544 32.813 108.533 32.9184 108.503 33.0188C108.472 33.1192 108.422 33.2125 108.355 33.2935C108.288 33.3744 108.206 33.4413 108.113 33.4903L103.395 36.0069C103.36 36.0251 103.321 36.0352 103.281 36.0364C103.241 36.0376 103.202 36.0298 103.165 36.0137C103.129 35.9976 103.096 35.9736 103.07 35.9433C103.044 35.9131 103.025 35.8774 103.015 35.8389C102.743 34.8263 102.274 33.9154 101.609 33.1063C101.541 33.025 101.507 32.9209 101.513 32.8149C101.519 32.7088 101.564 32.6085 101.64 32.5337C102.467 31.72 103.447 31.1714 104.578 30.888C104.652 30.8705 104.73 30.8783 104.798 30.91C104.866 30.9417 104.922 30.9956 104.955 31.0629L105.813 32.7806C105.87 32.8971 105.962 32.9463 106.09 32.928ZM104.634 32.7354C104.593 32.6823 104.542 32.6379 104.483 32.6045C104.425 32.5712 104.361 32.5496 104.294 32.5411C104.228 32.5326 104.16 32.5372 104.096 32.5548C104.031 32.5724 103.97 32.6026 103.917 32.6436L103.358 33.0755C103.305 33.1166 103.261 33.1676 103.227 33.2258C103.194 33.2841 103.172 33.3483 103.164 33.4148C103.155 33.4814 103.16 33.5489 103.178 33.6137C103.195 33.6784 103.225 33.7391 103.266 33.7921L103.426 33.9983C103.467 34.0514 103.518 34.0959 103.576 34.1292C103.634 34.1625 103.699 34.1841 103.765 34.1926C103.832 34.2011 103.899 34.1965 103.964 34.1789C104.029 34.1613 104.089 34.1311 104.142 34.0901L104.701 33.6582C104.754 33.6172 104.799 33.5661 104.832 33.5079C104.865 33.4497 104.887 33.3854 104.896 33.3189C104.904 33.2524 104.899 33.1848 104.882 33.12C104.864 33.0553 104.834 32.9947 104.793 32.9416L104.634 32.7354Z" fill="#2D366D"/>
<path d="M18.1851 32.1771L18.1131 32.3074C17.9486 32.6114 18.016 32.848 18.3154 33.0171L21.744 34.968C21.8709 35.0397 21.9691 35.1531 22.0221 35.2893C22.0752 35.4254 22.0799 35.5759 22.0354 35.7154L21.9943 35.8457C21.8343 36.3463 21.5269 36.4651 21.072 36.2023L16.7966 33.7509C16.7175 33.7054 16.6493 33.6432 16.5967 33.5686C16.5441 33.4941 16.5084 33.409 16.4921 33.3192C16.4758 33.2294 16.4792 33.1372 16.5022 33.0489C16.5252 32.9606 16.5671 32.8784 16.6251 32.808C17.1486 32.1794 17.5531 31.4811 17.8389 30.7131C17.8648 30.6437 17.9042 30.58 17.9548 30.5258C18.0054 30.4716 18.0662 30.4279 18.1338 30.3973C18.2013 30.3667 18.2743 30.3498 18.3484 30.3475C18.4226 30.3452 18.4964 30.3576 18.5657 30.384C19.4297 30.7131 20.4309 31.1109 19.9783 32.3109C19.9677 32.3389 19.9516 32.3645 19.9309 32.3862C19.9102 32.4079 19.8854 32.4251 19.8578 32.437C19.8303 32.4488 19.8007 32.455 19.7707 32.4551C19.7407 32.4552 19.7111 32.4493 19.6834 32.4377L18.6617 32.0091C18.4514 31.92 18.2926 31.976 18.1851 32.1771Z" fill="#205D9B"/>
<path d="M20.129 39.5863L19.3782 41.4788C19.3376 41.5795 19.2595 41.6605 19.1603 41.7046C19.0612 41.7488 18.9487 41.7526 18.8467 41.7154L14.1873 39.9977L11.2319 38.8286C11.128 38.7871 11.0334 38.7255 10.9536 38.6472C10.8738 38.5689 10.8104 38.4755 10.767 38.3724C10.7236 38.2694 10.7011 38.1587 10.7009 38.0469C10.7007 37.9351 10.7227 37.8244 10.7656 37.7211L12.1199 34.4743C12.1581 34.3858 12.2284 34.3152 12.3164 34.2769C12.4044 34.2386 12.5034 34.2357 12.593 34.2686L20.225 37.1108C20.6616 37.2754 20.8056 37.5783 20.657 38.0194L20.129 39.5863ZM18.2536 40.0663C18.3196 40.0923 18.3906 40.1032 18.4613 40.0981C18.532 40.093 18.6007 40.0721 18.6623 40.0368C18.7238 40.0016 18.7767 39.953 18.8169 39.8946C18.8572 39.8362 18.8838 39.7695 18.8947 39.6994L19.0765 38.592C19.0939 38.4845 19.0737 38.3744 19.0194 38.2801C18.965 38.1858 18.8799 38.1131 18.7782 38.0743L13.2342 35.9588C13.1173 35.9141 12.9875 35.9175 12.8731 35.9683C12.7587 36.019 12.6691 36.113 12.6239 36.2297L12.2502 37.2C12.2053 37.3164 12.2082 37.4459 12.2582 37.5602C12.3083 37.6745 12.4016 37.7644 12.5176 37.8103L18.2536 40.0663Z" fill="#205D9B"/>
<path d="M110.421 36.7475C110.476 36.9395 110.597 36.9989 110.784 36.9258L113.596 35.8355C113.79 35.7601 113.906 35.8252 113.945 36.0309L114.103 36.8744C114.14 37.0664 114.068 37.2001 113.887 37.2755L105.737 40.6595C105.426 40.7898 105.21 40.6961 105.089 40.3784L104.023 37.5532C103.956 37.3776 103.961 37.1828 104.036 37.0101C104.111 36.8373 104.25 36.7001 104.424 36.6275L108.905 34.7452C108.98 34.7131 109.064 34.7053 109.144 34.7232C109.225 34.741 109.298 34.7834 109.354 34.8446C109.855 35.3978 110.21 36.0321 110.421 36.7475ZM109.126 36.8103C109.101 36.7503 109.063 36.696 109.016 36.6505C108.97 36.605 108.914 36.5692 108.854 36.545C108.793 36.5209 108.728 36.5089 108.663 36.5098C108.598 36.5107 108.533 36.5245 108.473 36.5503L105.847 37.6814C105.787 37.7072 105.733 37.7446 105.687 37.7914C105.642 37.8382 105.606 37.8935 105.582 37.9542C105.558 38.0148 105.546 38.0796 105.547 38.1449C105.547 38.2102 105.561 38.2747 105.587 38.3346L105.674 38.5362C105.7 38.5961 105.737 38.6504 105.784 38.6959C105.831 38.7414 105.886 38.7773 105.947 38.8014C106.007 38.8256 106.072 38.8375 106.137 38.8366C106.203 38.8357 106.267 38.8219 106.327 38.7961L108.953 37.6651C109.013 37.6392 109.067 37.6019 109.113 37.5551C109.159 37.5082 109.194 37.4529 109.219 37.3923C109.243 37.3316 109.255 37.2668 109.254 37.2015C109.253 37.1362 109.239 37.0718 109.213 37.0118L109.126 36.8103Z" fill="#2D366D"/>
<path d="M69.5964 34.9577L80.993 45.216C81.2193 45.5634 81.2227 46.3143 81.0033 47.4686C74.1439 43.7748 67.2113 40.4217 60.2056 37.4091C61.5907 36.9154 63.0067 36.416 64.4536 35.9108C66.0033 35.3668 67.7176 35.0491 69.5964 34.9577Z" fill="#205D9B"/>
<path d="M39.9396 52.7726L40.5396 57.4012C40.2699 57.328 40.0036 57.2538 39.7407 57.1783C39.0379 56.9795 38.3967 56.4206 37.7179 56.088C37.6908 56.0753 37.6607 56.0704 37.631 56.0738C37.6013 56.0773 37.5732 56.0889 37.5497 56.1074C37.5262 56.1259 37.5084 56.1505 37.4981 56.1786C37.4878 56.2067 37.4856 56.237 37.4916 56.2663C37.6904 57.1269 39.0379 57.9498 39.6481 58.5943C39.8584 58.8183 40.103 59.0149 40.3819 59.184C40.7019 59.3783 40.9624 59.5635 41.1636 59.7395L41.8219 63.2983C41.8411 63.3982 41.8908 63.4894 41.9641 63.559C42.0373 63.6285 42.1304 63.6729 42.2299 63.6858L47.359 64.3749C49.1579 64.6903 50.4013 64.7966 51.0893 64.6938C52.4699 64.488 53.8561 64.3909 55.2481 64.4023C55.8333 64.4092 56.367 64.3749 56.8493 64.2995C57.3819 64.2172 57.9144 64.1372 58.447 64.0595C59.1281 63.9589 59.4253 63.7566 59.3384 63.4526C60.0242 63.5795 60.6481 63.7098 61.3613 63.5932C62.9293 63.3395 64.4767 63.0035 66.0036 62.5852C71.0024 61.2138 75.8699 59.4743 80.6059 57.3669C80.919 57.2755 81.2344 57.192 81.5522 57.1166C82.4024 56.9075 83.2424 56.4858 84.0481 56.1463C85.0253 55.7383 85.7659 55.2069 86.575 54.5829C86.6002 54.5639 86.63 54.552 86.6613 54.5482C86.6926 54.5445 86.7243 54.5492 86.7532 54.5617C86.7822 54.5743 86.8073 54.5943 86.8259 54.6197C86.8446 54.6451 86.8562 54.675 86.8596 54.7063C86.9213 55.2858 86.1259 55.8103 85.6973 56.0298C84.3396 56.7326 83.287 57.8606 82.1179 58.6218C81.5579 58.9875 81.0104 59.3555 80.4756 59.7258L73.5087 64.3543C73.0196 64.5029 72.5179 64.7349 72.0036 65.0503C71.231 65.5258 70.7601 65.8069 70.591 65.8938C66.9019 67.8092 64.4847 68.9326 63.3396 69.264C61.9384 69.6732 60.9441 70.0572 60.3567 70.416C58.439 70.704 56.4961 70.8903 54.5281 70.9749C52.2104 71.0755 50.2744 70.9326 48.7201 70.5463C46.759 70.0618 44.9064 69.2606 43.1624 68.1429C43.1425 68.1305 43.1198 68.1232 43.0964 68.1216C43.073 68.12 43.0497 68.1241 43.0286 68.1337C43.0074 68.1432 42.9892 68.1578 42.9754 68.1762C42.9617 68.1946 42.9529 68.2162 42.9499 68.2389C42.9293 68.3715 42.9396 68.5258 42.9807 68.7018C44.8824 76.6812 47.007 84.5098 49.3544 92.1875C49.5807 92.928 49.4893 92.9703 49.0801 92.3143C45.4904 86.5372 42.2161 80.7018 39.5796 74.4686C36.9224 68.016 34.9853 61.416 34.0081 54.528C34.111 54.6743 34.1876 54.832 34.2379 55.0012C34.2699 55.1063 34.3373 55.1463 34.4401 55.1212C34.7213 55.0549 34.8733 54.8755 34.8961 54.5829C34.903 54.496 34.9407 54.4263 35.0093 54.3738L36.8367 53.016C36.8664 52.9955 36.8984 52.9909 36.9327 53.0023C36.967 53.0138 36.9956 53.0195 37.0184 53.0195C37.0344 53.0195 37.0356 53.024 37.0219 53.0332C36.9236 53.0995 36.7179 53.3189 36.4047 53.6915C36.3923 53.708 36.3863 53.7284 36.3878 53.749C36.3893 53.7696 36.3981 53.7889 36.4127 53.8035C36.4273 53.8181 36.4466 53.8269 36.4672 53.8284C36.4878 53.8299 36.5082 53.8238 36.5247 53.8115L37.2104 53.2389C37.2996 53.1658 37.3819 53.1178 37.4573 53.0949C37.5099 53.0812 37.5567 53.0869 37.5979 53.112C37.7236 53.192 37.8356 53.176 37.9339 53.064C38.3636 52.5612 39.0321 52.464 39.9396 52.7726Z" fill="#286DAD"/>
<path d="M40.5396 57.4011C46.4664 60.2994 52.7327 62.3165 59.3384 63.4525C59.4253 63.7565 59.1281 63.9588 58.447 64.0594C57.9144 64.1371 57.3819 64.2171 56.8493 64.2994C56.367 64.3748 55.8333 64.4091 55.2481 64.4022C53.8561 64.3908 52.4699 64.488 51.0893 64.6937C50.4013 64.7965 49.1579 64.6902 47.359 64.3748L41.1636 59.7394C40.9624 59.5634 40.7019 59.3782 40.3819 59.184C40.103 59.0148 39.8584 58.8182 39.6481 58.5942C39.0379 57.9497 37.6904 57.1268 37.4916 56.2663C37.4856 56.237 37.4878 56.2066 37.4981 56.1785C37.5083 56.1504 37.5262 56.1258 37.5497 56.1073C37.5732 56.0888 37.6013 56.0772 37.631 56.0738C37.6607 56.0704 37.6908 56.0753 37.7179 56.088C38.3967 56.4205 39.0379 56.9794 39.7407 57.1783C40.0036 57.2537 40.2699 57.328 40.5396 57.4011Z" fill="#2D366D"/>
<path d="M71.9144 108.909L71.695 110.681C71.6841 110.769 71.6414 110.849 71.575 110.907C71.5086 110.966 71.4232 110.997 71.335 110.997L70.1556 110.986C70.1031 110.986 70.0515 110.974 70.0042 110.951C69.9569 110.928 69.9152 110.896 69.8819 110.855C69.8486 110.815 69.8245 110.767 69.8114 110.717C69.7982 110.666 69.7964 110.613 69.8058 110.561L72.0516 98.6366C72.0666 98.5546 72.1098 98.4803 72.1736 98.4265C72.2374 98.3728 72.3178 98.3428 72.4013 98.3418L73.7624 98.3281C73.8471 98.3265 73.9297 98.3549 73.9955 98.4082C74.0614 98.4615 74.1063 98.5363 74.1224 98.6195L76.4367 110.582C76.4469 110.634 76.4453 110.688 76.432 110.74C76.4187 110.792 76.3942 110.84 76.36 110.881C76.3259 110.922 76.2831 110.955 76.2347 110.977C76.1863 110.999 76.1335 111.011 76.0801 111.01L74.9624 110.993C74.877 110.992 74.7949 110.96 74.7308 110.903C74.6668 110.847 74.6249 110.769 74.6127 110.685L74.3624 108.898C74.3507 108.811 74.3077 108.732 74.2414 108.674C74.1751 108.617 74.0901 108.586 74.0024 108.586L72.271 108.593C72.1833 108.593 72.0988 108.626 72.0331 108.684C71.9675 108.742 71.9253 108.822 71.9144 108.909ZM73.2344 102.172C73.175 101.81 73.0721 101.805 72.9258 102.154C72.8801 102.271 72.8356 102.478 72.7921 102.775C72.6161 104.032 72.4093 105.273 72.1716 106.498C72.1573 106.571 72.1705 106.646 72.2085 106.709C72.2465 106.773 72.3066 106.82 72.3773 106.841C72.8253 106.978 73.2836 107.017 73.7521 106.958C73.7865 106.953 73.8196 106.942 73.8495 106.924C73.8794 106.907 73.9055 106.883 73.9263 106.855C73.947 106.828 73.962 106.796 73.9704 106.762C73.9787 106.729 73.9803 106.694 73.975 106.66L73.2344 102.172Z" fill="#387BB9"/>
<path d="M79.6903 109.251L82.1897 109.293C82.2535 109.293 82.3148 109.318 82.3611 109.362C82.4075 109.406 82.4357 109.465 82.44 109.529L82.5223 110.705C82.5251 110.74 82.5207 110.775 82.5092 110.809C82.4977 110.842 82.4795 110.872 82.4557 110.898C82.4318 110.924 82.4029 110.944 82.3707 110.958C82.3385 110.972 82.3037 110.98 82.2686 110.979L77.8251 110.949C77.7579 110.949 77.6933 110.922 77.6457 110.874C77.5982 110.827 77.5714 110.762 77.5714 110.695L77.5749 98.544C77.5748 98.5101 77.5816 98.4765 77.5948 98.4453C77.608 98.4141 77.6273 98.3858 77.6516 98.3621C77.6759 98.3385 77.7046 98.3199 77.7362 98.3076C77.7678 98.2953 77.8015 98.2894 77.8354 98.2903L79.0697 98.3177C79.1352 98.3195 79.1975 98.3465 79.2435 98.3932C79.2895 98.4398 79.3157 98.5025 79.3166 98.568L79.44 109.001C79.4409 109.067 79.4675 109.13 79.5143 109.177C79.561 109.224 79.6242 109.251 79.6903 109.251Z" fill="#387BB9"/>
<path d="M41.8869 98.8869C41.8864 98.837 41.8958 98.7876 41.9146 98.7415C41.9333 98.6953 41.961 98.6533 41.9961 98.618C42.0312 98.5826 42.0729 98.5545 42.1189 98.5353C42.1649 98.5162 42.2142 98.5063 42.264 98.5063L45.7749 98.5029C46.4035 98.5021 47.0068 98.7706 47.4523 99.2495C47.8978 99.7284 48.149 100.379 48.1509 101.057L48.1646 108.525C48.1655 108.861 48.1049 109.195 47.9863 109.506C47.8677 109.817 47.6934 110.1 47.4733 110.339C47.2533 110.577 46.9919 110.767 46.7039 110.896C46.416 111.025 46.1073 111.092 45.7954 111.093L42.2846 111.096C42.1851 111.096 42.0897 111.057 42.0191 110.987C41.9485 110.917 41.9083 110.822 41.9074 110.722L41.8869 98.8869ZM43.7589 100.519V109.118C43.7589 109.226 43.8018 109.33 43.8784 109.406C43.9549 109.483 44.0587 109.526 44.1669 109.526H45.3154C45.4424 109.526 45.5681 109.498 45.6854 109.443C45.8027 109.388 45.9093 109.308 45.9991 109.206C46.0889 109.105 46.1601 108.985 46.2087 108.853C46.2573 108.72 46.2823 108.579 46.2823 108.435V101.201C46.2823 101.058 46.2573 100.916 46.2087 100.784C46.1601 100.652 46.0889 100.531 45.9991 100.43C45.9093 100.329 45.8027 100.249 45.6854 100.194C45.5681 100.139 45.4424 100.111 45.3154 100.111H44.1669C44.0587 100.111 43.9549 100.154 43.8784 100.23C43.8018 100.307 43.7589 100.411 43.7589 100.519Z" fill="#387BB9"/>
<path d="M54.6754 109.649L54.7817 110.698C54.786 110.741 54.7814 110.784 54.7683 110.824C54.7551 110.865 54.7337 110.902 54.7053 110.934C54.677 110.966 54.6423 110.992 54.6035 111.01C54.5647 111.027 54.5227 111.037 54.48 111.038L49.8549 111.103C49.814 111.103 49.7736 111.096 49.7357 111.08C49.6979 111.065 49.6635 111.042 49.6344 111.014C49.6054 110.985 49.5824 110.951 49.5667 110.913C49.5509 110.876 49.5429 110.835 49.5429 110.794L49.5394 98.7566C49.5394 98.6753 49.5715 98.5974 49.6286 98.5396C49.6857 98.4818 49.7633 98.4489 49.8446 98.448L54.4114 98.424C54.4534 98.4239 54.495 98.4325 54.5336 98.449C54.5722 98.4656 54.607 98.4899 54.6359 98.5204C54.6648 98.5509 54.6872 98.5869 54.7016 98.6264C54.7161 98.6658 54.7223 98.7078 54.72 98.7497L54.648 99.9257C54.6436 100.006 54.6077 100.082 54.5481 100.137C54.4885 100.191 54.4099 100.22 54.3291 100.217L51.7337 100.125C51.6923 100.123 51.6511 100.13 51.6125 100.145C51.5738 100.16 51.5386 100.182 51.5088 100.211C51.4791 100.24 51.4554 100.275 51.4393 100.313C51.4231 100.351 51.4148 100.392 51.4149 100.433L51.4114 103.509C51.4114 103.549 51.4195 103.59 51.4352 103.627C51.451 103.665 51.474 103.699 51.503 103.728C51.532 103.757 51.5665 103.779 51.6043 103.795C51.6421 103.81 51.6826 103.818 51.7234 103.817L53.9486 103.786C53.9891 103.785 54.0294 103.792 54.0672 103.807C54.105 103.822 54.1395 103.844 54.1688 103.872C54.1981 103.9 54.2216 103.933 54.2379 103.97C54.2542 104.008 54.2631 104.047 54.264 104.088L54.2914 105.11C54.2923 105.151 54.2851 105.191 54.2703 105.229C54.2554 105.267 54.2331 105.302 54.2047 105.331C54.1763 105.36 54.1424 105.384 54.1049 105.4C54.0674 105.416 54.0271 105.425 53.9863 105.425L51.7577 105.439C51.6782 105.44 51.6021 105.471 51.5453 105.527C51.4884 105.582 51.4552 105.658 51.4526 105.737L51.3703 109.063C51.3694 109.104 51.3767 109.145 51.3918 109.183C51.4069 109.221 51.4295 109.256 51.4582 109.285C51.4869 109.315 51.5213 109.338 51.5592 109.354C51.5971 109.37 51.6377 109.378 51.6789 109.378L54.3669 109.371C54.4436 109.371 54.5178 109.399 54.5748 109.451C54.6319 109.502 54.6678 109.573 54.6754 109.649Z" fill="#387BB9"/>
<path d="M57.7853 104.153L57.823 110.822C57.823 111.027 57.7213 111.121 57.5178 111.103L56.2458 110.993C56.1018 110.979 56.0298 110.902 56.0298 110.76L55.9955 98.7257C55.9955 98.6228 56.0435 98.5531 56.1395 98.5165C57.0195 98.1759 57.6093 98.4045 57.9087 99.2022C58.6218 101.095 59.3407 102.943 60.0653 104.746C60.3213 105.382 60.4515 105.358 60.4561 104.674L60.5041 98.7805C60.5064 98.5177 60.6401 98.3885 60.9053 98.3931L61.8138 98.4137C61.9251 98.4163 62.031 98.4626 62.1091 98.5425C62.1872 98.6225 62.2313 98.73 62.2321 98.8422L62.3247 110.544C62.327 110.805 62.2001 110.959 61.9441 111.007C61.1898 111.151 60.7178 110.983 60.5281 110.503C59.6595 108.299 58.8333 106.166 58.0493 104.102C57.8687 103.626 57.7807 103.643 57.7853 104.153Z" fill="#387BB9"/>
<path d="M64.896 100.07L63.6206 100.138C63.5733 100.141 63.526 100.134 63.4815 100.118C63.4369 100.103 63.396 100.078 63.3611 100.046C63.3263 100.014 63.2982 99.9753 63.2786 99.9323C63.2589 99.8893 63.2482 99.8427 63.2469 99.7954L63.2229 98.7874C63.2215 98.7405 63.2295 98.6937 63.2464 98.6499C63.2633 98.6061 63.2888 98.5661 63.3214 98.5323C63.3539 98.4984 63.3929 98.4714 63.4361 98.4528C63.4792 98.4342 63.5256 98.4244 63.5726 98.424L68.8766 98.3897C68.9235 98.3893 68.9701 98.3982 69.0136 98.4159C69.057 98.4337 69.0965 98.4599 69.1297 98.4931C69.1629 98.5263 69.1892 98.5658 69.2069 98.6093C69.2247 98.6528 69.2336 98.6993 69.2331 98.7463L69.2229 99.7543C69.2226 99.8031 69.2122 99.8513 69.1923 99.8959C69.1725 99.9405 69.1436 99.9804 69.1075 100.013C69.0714 100.046 69.0289 100.071 68.9827 100.087C68.9364 100.102 68.8875 100.108 68.8389 100.104L67.5154 99.9909C67.4665 99.987 67.4173 99.9935 67.371 100.01C67.3247 100.026 67.2823 100.052 67.2465 100.085C67.2107 100.119 67.1823 100.159 67.1631 100.205C67.1438 100.25 67.1342 100.298 67.1349 100.347L67.1966 110.654C67.197 110.7 67.1883 110.746 67.171 110.789C67.1537 110.832 67.128 110.871 67.0956 110.904C67.0631 110.938 67.0244 110.964 66.9817 110.982C66.9391 111 66.8932 111.01 66.8469 111.01L65.7017 111.014C65.6553 111.014 65.6093 111.005 65.5663 110.988C65.5233 110.971 65.4841 110.945 65.451 110.913C65.4179 110.88 65.3915 110.842 65.3733 110.799C65.3552 110.756 65.3456 110.71 65.3451 110.664L65.2697 100.419C65.2693 100.372 65.2592 100.324 65.24 100.28C65.2208 100.237 65.1928 100.197 65.1579 100.164C65.1229 100.132 65.0817 100.106 65.0367 100.09C64.9916 100.074 64.9438 100.067 64.896 100.07Z" fill="#387BB9"/>
</g>
<defs>
<clipPath id="clip0_6_2193">
<rect width="120" height="112.8" fill="white"/>
</clipPath>
</defs>
</svg>
